<svg width="101" height="101" viewBox="0 0 101 101" fill="none" xmlns="http://www.w3.org/2000/svg">
<path d="M50.4965 94.6805C79.9583 94.6805 94.6805 74.8986 94.6805 50.4965C94.6805 26.0943 79.9583 6.3125 50.4965 6.3125C21.0346 6.3125 6.3125 26.0943 6.3125 50.4965C6.3125 74.8986 21.0346 94.6805 50.4965 94.6805Z" fill="#FFB02E"/>
<path d="M33.0996 31.7424C26.1766 30.2332 19.8882 35.6593 18.8043 42.5327C18.5328 44.2546 16.9168 45.4303 15.1949 45.1588C13.473 44.8873 12.2973 43.2713 12.5688 41.5494C14.0731 32.0104 23.124 23.107 34.4441 25.5747C43.4344 27.5233 49.1558 36.3965 47.2093 45.3909C45.5776 52.9378 38.1502 57.7082 30.6114 56.0782C24.2348 54.6995 20.1873 48.4103 21.5653 42.0369L21.568 42.0247C22.1322 39.4641 23.5241 37.2705 25.6265 35.8834C27.7362 34.4915 30.31 34.0787 32.9092 34.6289C36.0764 35.2968 37.741 38.139 38.1792 40.3773C38.4146 41.5799 38.3957 42.9916 37.8422 44.3196C37.2518 45.7361 36.0827 46.9453 34.3662 47.4621C32.697 47.9646 30.9365 47.0189 30.434 45.3497C29.99 43.875 30.6765 42.329 31.9936 41.6423L31.9843 41.5901C31.9308 41.3172 31.8077 41.0656 31.677 40.9055C31.6262 40.8432 31.5895 40.8119 31.5704 40.798C30.4624 40.5707 29.6543 40.7886 29.1028 41.1524C28.5392 41.5243 27.991 42.2168 27.734 43.377C27.0959 46.3439 28.9816 49.2675 31.9454 49.9083C36.0848 50.8033 40.1462 48.1881 41.0394 44.0569C42.2484 38.4712 38.6929 32.9531 33.1042 31.7434L33.0996 31.7424ZM31.5552 40.7885C31.5553 40.7884 31.5572 40.7892 31.561 40.7916L31.5552 40.7885Z" fill="#402A32"/>
<path d="M37.6836 68.3216C39.5324 66.4727 42.5301 66.4727 44.379 68.3216L50.5 74.4426L56.6211 68.3216C58.4699 66.4727 61.4676 66.4727 63.3165 68.3216L69.4375 74.4426L75.0963 68.7838C76.3289 67.5512 78.3274 67.5512 79.56 68.7838C80.7925 70.0164 80.7925 72.0148 79.56 73.2474L72.7852 80.0222C70.9363 81.871 67.9387 81.871 66.0898 80.0222L59.9688 73.9011L53.8477 80.0222C51.9988 81.871 49.0012 81.871 47.1523 80.0222L41.0313 73.9011L34.9102 80.0222C33.0613 81.871 30.0637 81.871 28.2148 80.0222L21.4401 73.2474C20.2075 72.0148 20.2075 70.0164 21.4401 68.7838C22.6727 67.5512 24.6711 67.5512 25.9037 68.7838L31.5625 74.4426L37.6836 68.3216Z" fill="#402A32"/>
<path d="M82.1006 42.5327C81.0167 35.6593 74.7283 30.2332 67.8052 31.7424L67.8007 31.7434C62.2119 32.9531 58.6563 38.4705 59.8653 44.0562C60.7586 48.1874 64.8201 50.8033 68.9594 49.9083C71.9233 49.2675 73.809 46.3439 73.1709 43.377C72.9139 42.2168 72.3657 41.5243 71.802 41.1524C71.2505 40.7886 70.4424 40.5707 69.3345 40.798C69.3153 40.8119 69.2787 40.8432 69.2278 40.9055C69.0971 41.0656 68.974 41.3172 68.9206 41.5901L68.9113 41.6423C70.2284 42.329 70.9149 43.875 70.4709 45.3497C69.9683 47.0189 68.2078 47.9646 66.5387 47.4621C64.8222 46.9453 63.6531 45.7361 63.0627 44.3196C62.5092 42.9916 62.4903 41.5799 62.7257 40.3773C63.1639 38.139 64.8284 35.2968 67.9957 34.6289C70.5948 34.0787 73.1686 34.4915 75.2783 35.8834C77.3808 37.2705 78.7727 39.4641 79.3369 42.0247L79.3395 42.0369C80.7176 48.4103 76.67 54.6995 70.2934 56.0782C62.7546 57.7082 55.3273 52.9378 53.6955 45.3909C51.7491 36.3965 57.4705 27.5233 66.4607 25.5747C77.7809 23.107 86.8318 32.0104 88.336 41.5494C88.6076 43.2713 87.4318 44.8873 85.71 45.1588C83.9881 45.4303 82.3721 44.2546 82.1006 42.5327ZM69.3482 40.7891C69.3482 40.789 69.3491 40.7886 69.3482 40.7891V40.7891Z" fill="#402A32"/>
</svg>
