<svg width="101" height="101" viewBox="0 0 101 101" fill="none" xmlns="http://www.w3.org/2000/svg">
<path d="M51.2312 93.1848C79.3764 93.1848 93.4405 74.287 93.4405 50.9755C93.4405 27.6639 79.3764 8.76611 51.2312 8.76611C23.086 8.76611 9.02185 27.6639 9.02185 50.9755C9.02185 74.287 23.086 93.1848 51.2312 93.1848Z" fill="#FFB02E"/>
<path d="M34.1959 60.1823C41.8216 60.1823 48.0034 54.0005 48.0034 46.3749C48.0034 38.7492 41.8216 32.5674 34.1959 32.5674C26.5702 32.5674 20.3884 38.7492 20.3884 46.3749C20.3884 54.0005 26.5702 60.1823 34.1959 60.1823Z" fill="white"/>
<path d="M68.2735 60.1823C75.8992 60.1823 82.081 54.0005 82.081 46.3749C82.081 38.7492 75.8992 32.5674 68.2735 32.5674C60.6479 32.5674 54.4661 38.7492 54.4661 46.3749C54.4661 54.0005 60.6479 60.1823 68.2735 60.1823Z" fill="white"/>
<path d="M35.6152 54.694C39.428 54.694 42.5189 51.603 42.5189 47.7902C42.5189 43.9774 39.428 40.8865 35.6152 40.8865C31.8023 40.8865 28.7114 43.9774 28.7114 47.7902C28.7114 51.603 31.8023 54.694 35.6152 54.694Z" fill="#402A32"/>
<path d="M66.854 54.694C70.6669 54.694 73.7578 51.603 73.7578 47.7902C73.7578 43.9774 70.6669 40.8865 66.854 40.8865C63.0412 40.8865 59.9503 43.9774 59.9503 47.7902C59.9503 51.603 63.0412 54.694 66.854 54.694Z" fill="#402A32"/>
<path fill-rule="evenodd" clip-rule="evenodd" d="M6.30324 21.5201C6.2277 20.9043 6.1888 20.2771 6.1888 19.6408C6.1888 11.2039 13.0283 4.36447 21.4652 4.36447C25.2566 4.36447 28.7254 5.74567 31.3959 8.03235C33.8987 4.39641 38.0899 2.0127 42.8377 2.0127C47.0842 2.0127 50.8853 3.91955 53.4315 6.92371C55.7461 5.04585 58.6961 3.92062 61.9088 3.92062C65.3646 3.92062 68.5162 5.22246 70.9001 7.36245C73.8544 5.05146 77.5742 3.67404 81.6158 3.67404C91.229 3.67404 99.022 11.4671 99.022 21.0803C99.022 24.5759 97.9916 27.8309 96.2179 30.558C97.7876 32.4967 98.7279 34.9659 98.7279 37.6547C98.7279 40.9146 97.3457 43.8517 95.1355 45.912C96.7129 47.6274 97.676 49.9166 97.676 52.4308C97.676 54.7812 96.8342 56.9351 95.4357 58.6073C97.5674 60.8543 98.8751 63.8907 98.8751 67.2325C98.8751 70.0616 97.9378 72.6719 96.3568 74.7696C97.2054 76.7254 97.6758 78.8834 97.6758 81.1513C97.6758 90.0141 90.4911 97.1988 81.6283 97.1988C78.6753 97.1988 75.9087 96.4012 73.532 95.0097C71.0831 97.466 67.6956 98.986 63.9531 98.986C61.0942 98.986 58.4425 98.099 56.2581 96.5853C53.7658 97.8822 50.9332 98.6152 47.9295 98.6152C42.039 98.6152 36.8069 95.7963 33.5087 91.4339C30.9901 95.5376 26.4615 98.2748 21.2937 98.2748C13.3841 98.2748 6.97208 91.8628 6.97208 83.9532C6.97208 83.0119 7.0629 82.0918 7.23625 81.2012C5.07253 78.3324 3.78963 74.7619 3.78963 70.8918C3.78963 66.6888 5.30269 62.8393 7.81382 59.8581C5.19269 57.8982 3.49605 54.7699 3.49605 51.2453C3.49605 47.8629 5.05855 44.8455 7.50113 42.8754C4.14294 40.2979 1.97803 36.243 1.97803 31.6825C1.97803 27.6903 3.63704 24.0856 6.30324 21.5201ZM42.8377 29.7745C45.9703 29.7745 48.8606 28.7368 51.1835 26.9864C51.6561 27.089 52.145 27.1476 52.6459 27.1576C55.0595 29.4462 58.3202 30.8501 61.9088 30.8501C63.5808 30.8501 65.1816 30.5454 66.6587 29.9884C68.7852 33.5513 72.1486 36.2904 76.1561 37.6131L76.1561 37.6547C76.1561 41.2442 77.8317 44.4422 80.4435 46.5093C79.1687 48.1429 78.4092 50.1981 78.4092 52.4308C78.4092 53.9909 78.7801 55.4644 79.4385 56.7679C76.0699 58.9943 73.8393 62.8035 73.8066 67.1357C71.4704 68.4423 69.4945 70.316 68.0652 72.5705C66.7684 72.1572 65.3868 71.9341 63.9531 71.9341L63.8154 71.9348C60.7557 66.3035 54.789 62.4808 47.9295 62.4808C43.9695 62.4808 40.3071 63.7548 37.3297 65.9152C35.5445 60.0233 30.6717 55.4733 24.594 54.1482C24.8525 53.2248 24.9907 52.2512 24.9907 51.2453C24.9907 48.587 24.0255 46.1541 22.4265 44.2779C26.8829 42.0278 29.9825 37.4822 30.1714 32.1951C32.0491 30.8905 33.6202 29.1754 34.7548 27.1797C37.0312 28.813 39.8222 29.7745 42.8377 29.7745Z" fill="#F3EEF8"/>
<path d="M51.1835 26.9869C48.8606 28.7373 45.9703 29.775 42.8377 29.775C39.8222 29.775 37.0312 28.8134 34.7548 27.1802C33.636 29.148 32.0929 30.8431 30.2497 32.1408C30.6374 26.7288 27.7942 21.7716 22.9693 19.1501C24.0123 19.1996 25.0661 19.3664 26.1145 19.6595C28.0409 20.198 29.7402 21.1614 31.1669 22.423C33.8441 24.0784 39.4051 24.6263 42.7081 19.5298L42.7265 19.5801C42.7379 19.525 42.7499 19.4701 42.7623 19.4153C43.7527 23.7021 47.5981 26.8939 52.1845 26.8851C55.0654 26.8795 57.649 25.6123 59.4135 23.6073C60.1574 19.7382 62.0946 16.1413 65.2754 13.5138C66.3661 12.6129 67.5299 11.8591 68.7427 11.2502C64.4846 16.7905 63.6642 23.9887 66.7433 30.1291C66.7149 30.0825 66.6867 30.0358 66.6587 29.9889C65.1816 30.5458 63.5808 30.8506 61.9088 30.8506C58.3202 30.8506 55.0595 29.4467 52.6459 27.1581C52.145 27.1481 51.6561 27.0895 51.1835 26.9869Z" fill="#BCA4EB"/>
<path d="M76.0193 37.5678C76.0648 37.5832 76.1104 37.5985 76.1561 37.6136L76.1561 37.6552C76.1561 40.1966 76.9961 42.5417 78.4135 44.4282C85.2536 44.6196 91.4429 40.8329 93.3886 34.6715C93.7253 33.6055 93.9171 32.5247 93.9746 31.4466C90.5472 36.9316 83.2285 39.5671 76.0193 37.5678Z" fill="#BCA4EB"/>
<path d="M70.5314 69.5595C71.5124 68.6201 72.6124 67.8041 73.8066 67.1362C73.8073 67.0465 73.8089 66.957 73.8114 66.8677C75.9006 66.8988 78.0732 67.6965 79.8628 69.2638C83.5452 72.489 84.2111 77.7517 81.3501 81.0184C80.9509 81.4742 80.5041 81.8671 80.0208 82.1969C81.6443 78.9743 80.7092 74.6905 77.5405 71.9153C75.4753 70.1066 72.8998 69.3228 70.5314 69.5595Z" fill="#BCA4EB"/>
<path d="M22.4372 44.2909L22.4265 44.2784C26.3694 42.2875 29.2502 38.4997 29.9925 33.9912L29.9916 33.9956C26.2154 39.2132 19.235 41.3791 13.0093 38.8328C6.97526 36.3648 3.53754 30.2424 4.20782 24.0697C2.79659 26.2657 1.97803 28.8787 1.97803 31.683C1.97803 36.2435 4.14294 40.2983 7.50113 42.8759C7.46756 42.903 7.43415 42.9302 7.40092 42.9577C8.35875 43.6773 9.42341 44.2873 10.5842 44.762C14.5724 46.3932 18.8703 46.0907 22.4372 44.2909Z" fill="#BCA4EB"/>
<path d="M5.48479 63.4518C6.11003 62.1566 6.89344 60.952 7.80994 59.8631C9.01212 60.6805 10.3997 61.2673 11.9209 61.5484C16.9731 62.4819 21.8533 59.7391 23.808 55.2149C23.8419 56.0133 23.7871 56.828 23.6358 57.6473C22.5509 63.5187 16.9118 67.3989 11.0404 66.3141C8.86466 65.912 6.96234 64.8846 5.48479 63.4518Z" fill="#BCA4EB"/>
<path d="M93.4919 91.9584C90.5569 95.1785 86.3286 97.1993 81.6283 97.1993C78.6753 97.1993 75.9087 96.4017 73.532 95.0102C71.0831 97.4665 67.6956 98.9865 63.9531 98.9865C61.0942 98.9865 58.4425 98.0995 56.2581 96.5857C53.7658 97.8827 50.9332 98.6157 47.9295 98.6157C42.039 98.6157 36.8069 95.7968 33.5087 91.4344C30.9901 95.5381 26.4615 98.2753 21.2937 98.2753C13.3841 98.2753 6.97208 91.8633 6.97208 83.9537C6.97208 83.0124 7.0629 82.0923 7.23625 81.2017C7.22945 81.1926 7.22265 81.1836 7.21586 81.1746C7.2578 81.0735 7.30174 80.9751 7.34766 80.8794C12.8283 87.4397 20.158 89.8675 27.0741 85.3672C27.0741 85.3672 26.1371 80.8794 30.3289 74.6656C28.8293 82.8491 31.0524 88.2409 32.8257 90.6144C41.0175 94.4688 48.2145 94.7176 52.4982 91.8446C51.8725 90.4692 51.4857 88.9571 51.3935 87.3581C51.3376 86.3897 51.3928 85.4404 51.5479 84.5229C53.1489 90.0339 58.3888 93.9118 64.3614 93.5673C70.334 93.2228 75.0933 88.7682 76.05 83.1097C76.3096 84.0033 76.4736 84.9399 76.5294 85.9083C76.6077 87.2656 76.4679 88.585 76.1405 89.8325C79.4012 93.4912 85.7503 94.4354 93.4919 91.9584Z" fill="#BCA4EB"/>
<path d="M96.3795 57.2614C96.103 57.7375 95.7869 58.1878 95.4357 58.6078C96.457 59.6844 97.2892 60.9422 97.8791 62.328C97.722 62.4848 97.5586 62.6374 97.3889 62.7854C93.3033 66.3489 87.1026 65.9256 83.5392 61.84C83.042 61.27 82.6225 60.6587 82.2796 60.0193C85.8995 62.6499 90.9811 62.5355 94.4966 59.4693C95.2491 58.8129 95.8774 58.067 96.3795 57.2614Z" fill="#BCA4EB"/>
<path d="M6.20278 20.3009C6.27217 20.6706 6.35772 21.0386 6.45981 21.4038C7.44614 20.5161 9.77097 18.8887 11.5887 18.8887C9.99972 13.2047 12.5782 7.67775 17.5529 4.97485C17.3912 4.98254 17.2292 4.99342 17.0671 5.00755C10.774 6.89623 6.1888 12.7333 6.1888 19.6413C6.1888 19.8623 6.19349 20.0822 6.20278 20.3009Z" fill="#BCA4EB"/>
</svg>
