<svg width="101" height="101" viewBox="0 0 101 101" fill="none" xmlns="http://www.w3.org/2000/svg">
<path d="M88.375 50.5C88.375 71.4178 71.4178 88.375 50.5 88.375C29.5822 88.375 12.625 71.4178 12.625 50.5C12.625 29.5822 29.5822 12.625 50.5 12.625C71.4178 12.625 88.375 29.5822 88.375 50.5Z" fill="#E6E6E6"/>
<path d="M50.5909 22.1438C52.3341 22.1438 53.7472 23.5569 53.7472 25.3V50.5355C53.7472 52.2786 52.3341 53.6917 50.5909 53.6917C48.8478 53.6917 47.4347 52.2786 47.4347 50.5355V25.3C47.4347 23.5569 48.8478 22.1438 50.5909 22.1438Z" fill="#CA0B4A"/>
<path d="M69.6425 61.4954C68.7709 63.005 66.8405 63.5222 65.3309 62.6506L49.0203 53.2337C47.5107 52.3621 46.9935 50.4318 47.8651 48.9222C48.7366 47.4126 50.667 46.8953 52.1766 47.7669L68.4872 57.1838C69.9968 58.0554 70.514 59.9857 69.6425 61.4954Z" fill="black"/>
<path d="M50.5 85.2188C69.6746 85.2188 85.2188 69.6746 85.2188 50.5C85.2188 31.3254 69.6746 15.7812 50.5 15.7812C31.3254 15.7812 15.7812 31.3254 15.7812 50.5C15.7812 69.6746 31.3254 85.2188 50.5 85.2188ZM50.5 94.6875C26.0959 94.6875 6.3125 74.9041 6.3125 50.5C6.3125 26.0959 26.0959 6.3125 50.5 6.3125C74.9041 6.3125 94.6875 26.0959 94.6875 50.5C94.6875 74.9041 74.9041 94.6875 50.5 94.6875Z" fill="#636363"/>
<path d="M56.8757 50.5353C56.8757 54.0021 54.0653 56.8125 50.5984 56.8125C47.1316 56.8125 44.3212 54.0021 44.3212 50.5353C44.3212 47.0685 47.1316 44.2581 50.5984 44.2581C54.0653 44.2581 56.8757 47.0685 56.8757 50.5353Z" fill="#9B9B9B"/>
</svg>
