<svg width="218" height="218" viewBox="0 0 218 218" fill="none" xmlns="http://www.w3.org/2000/svg">
<path d="M109 218C48.7498 218 0 169.178 0 109C0 48.7498 48.8221 0 109 0C169.25 0 218 48.8221 218 109C218.072 169.25 169.25 218 109 218Z" fill="#BFE3E7"/>
<mask id="mask0_679_1315" style="mask-type:alpha" maskUnits="userSpaceOnUse" x="0" y="0" width="218" height="218">
<path d="M109 218C48.7498 218 0 169.178 0 109C0 48.7498 48.8221 0 109 0C169.25 0 218 48.8221 218 109C218.072 169.25 169.25 218 109 218Z" fill="#F7C0B5"/>
</mask>
<g mask="url(#mask0_679_1315)">
<path d="M170.04 200.783C169.531 201.146 168.95 201.509 168.441 201.873C167.86 202.236 167.351 202.599 166.77 202.89C166.261 203.181 165.825 203.471 165.317 203.762C165.244 203.835 165.171 203.835 165.099 203.907C163.427 204.925 161.683 205.869 159.939 206.741C159.431 207.032 158.849 207.323 158.341 207.541C158.341 207.541 158.268 207.613 158.195 207.613C157.614 207.904 157.033 208.195 156.451 208.485C155.289 209.067 154.053 209.575 152.891 210.084C152.309 210.375 151.655 210.593 151.074 210.811C150.493 211.029 149.839 211.319 149.257 211.537C148.676 211.755 148.022 212.046 147.441 212.264C147.441 212.264 147.441 212.264 147.368 212.264C146.787 212.482 146.133 212.7 145.551 212.918C144.243 213.354 142.863 213.79 141.555 214.226C141.119 214.371 140.61 214.517 140.174 214.662C138.793 215.098 137.413 215.461 136.032 215.752C135.523 215.897 135.015 215.97 134.433 216.115C133.125 216.406 131.745 216.697 130.437 216.987C130.146 217.06 129.928 217.06 129.637 217.133C129.201 217.205 128.693 217.278 128.257 217.351C127.603 217.423 127.021 217.569 126.367 217.641C126.077 217.714 125.786 217.714 125.495 217.787C125.132 217.859 124.696 217.932 124.26 217.932C123.097 218.077 121.862 218.223 120.699 218.368C120.336 218.441 119.9 218.441 119.537 218.513H119.464C118.955 218.586 118.447 218.586 117.938 218.659C117.429 218.731 116.921 218.731 116.412 218.731C116.121 218.731 115.758 218.804 115.467 218.804C114.886 218.804 114.377 218.877 113.869 218.877C113.142 218.877 112.488 218.949 111.761 218.949C111.035 218.949 110.381 218.949 109.654 218.949C109.145 218.949 108.637 218.949 108.128 218.949C77.5353 218.513 49.922 205.506 30.302 184.869C30.302 184.869 30.302 184.796 30.2294 184.796C32.482 180.363 40.8387 172.37 49.5587 165.757C60.604 157.401 76.2273 152.241 76.2273 152.241C76.2273 152.241 86.4733 150.57 124.478 158.491C153.472 164.595 165.825 189.374 170.04 200.783Z" fill="#F7D3B5"/>
<path d="M132.544 178.62C131.018 186.104 121.135 190.537 104.495 183.852C84.0753 175.568 76.2273 152.242 76.2273 152.242C75.1373 135.528 72.594 121.213 72.594 121.213C96.2106 119.178 124.115 146.792 124.115 146.792L127.312 160.453C127.603 161.616 128.184 162.633 129.056 163.36C130.582 165.976 133.561 173.824 132.544 178.62Z" fill="#F7D3B5"/>
<path d="M129.056 163.432C115.177 162.705 104.931 160.671 93.958 140.978C103.259 149.189 114.232 152.314 125.786 153.767L127.312 160.453C127.603 161.688 128.184 162.705 129.056 163.432Z" fill="#EFBDA5"/>
<path d="M157.759 75.8689C159.067 81.9729 159.721 86.9143 156.161 103.192C152.6 119.469 159.431 135.746 142.281 150.643C130.727 160.671 110.526 162.56 94.394 151.588C88.944 147.882 83.93 142.722 79.8606 135.964C76.6633 130.66 72.9573 125.646 68.8153 121.068C63.0747 114.818 56.1713 102.247 59.5867 80.0109C65.1093 43.823 100.934 39.681 122.08 43.6776C143.226 47.6743 154.199 59.7369 157.759 75.8689Z" fill="#F7D3B5"/>
<path d="M88.2173 104.282C88.2173 104.282 85.9647 93.3815 75.3554 94.6895C66.1994 95.8522 63.002 117.798 83.7847 123.902" fill="#F7D3B5"/>
<path d="M83.1307 113.946C83.1307 113.946 80.5147 112.275 80.8054 109.368C81.2414 105.953 80.8054 103.846 79.2067 103.192C75.21 101.52 74.4107 106.171 74.556 106.752" stroke="#423232" stroke-width="2.26026" stroke-miterlimit="10" stroke-linecap="round" stroke-linejoin="round"/>
<path d="M138.575 120.995C138.575 120.995 141.337 121.14 143.953 118.015C145.406 116.271 146.641 114.091 145.842 113.437C145.043 112.711 131.89 114.745 131.018 116.489C130.146 118.233 135.233 120.995 138.575 120.995Z" fill="#EFBDA5"/>
<path d="M140.755 96.5791C140.755 96.5791 140.901 103.482 145.333 111.185C147.295 114.6 144.316 120.196 137.849 121.14" stroke="#423232" stroke-width="2.26026" stroke-miterlimit="10" stroke-linecap="round" stroke-linejoin="round"/>
<path opacity="0.42" d="M101.37 124.701C105.504 124.701 108.855 121.936 108.855 118.524C108.855 115.113 105.504 112.348 101.37 112.348C97.2363 112.348 93.8853 115.113 93.8853 118.524C93.8853 121.936 97.2363 124.701 101.37 124.701Z" fill="#ED938A"/>
<path opacity="0.42" d="M154.998 112.493C154.78 116.562 154.853 120.559 154.562 124.556C151.365 123.829 149.039 121.431 149.039 118.597C149.039 115.545 151.583 113.074 154.998 112.493Z" fill="#ED938A"/>
<path d="M151.866 172.51C151.866 172.51 140.603 161.974 129.485 159.43C129.485 159.43 138.859 174.69 111.318 171.856C89.954 169.676 76.0747 151.8 76.0747 151.8C76.0747 151.8 62.05 155.724 50.7141 164.372C50.7141 164.372 52.24 186.68 77.746 197.726C103.252 208.771 138.786 203.321 147.215 196.2C155.645 189.078 153.973 174.836 151.866 172.51Z" fill="#096A84"/>
<path d="M44.4647 169.24C44.4647 169.24 23.1007 177.016 15.3981 199.179C7.69539 221.342 15.1801 254.333 15.1801 254.333H185.22C185.22 254.333 186.601 216.038 174.829 194.746C172.067 189.805 164.437 181.812 158.987 179.268C158.987 179.268 161.022 198.016 128.831 199.688C96.6394 201.359 57.9081 191.113 56.9634 185.154C56.0914 179.05 44.4647 169.24 44.4647 169.24Z" fill="#096A84"/>
<path d="M166.69 255.641C121.055 276.714 45.9181 257.676 45.9181 257.676C45.9181 257.676 44.3921 239.146 49.9147 205.792C50.1327 204.266 50.3507 202.74 50.4961 201.359C52.0947 186.244 48.3887 175.853 44.4647 169.313C44.4647 167.642 46.2087 166.479 48.1707 164.808C48.9701 164.154 50.0601 164.081 50.6414 164.517C51.6587 165.97 52.6034 167.424 53.4027 168.95C61.5414 183.992 77.5281 191.985 94.5321 193.656C117.713 195.982 127.377 195.618 138.931 193.075C150.049 190.604 155.063 184.064 151.939 173.164C151.866 173.019 151.866 172.801 151.793 172.583C153.755 172.438 158.333 176.216 159.859 181.812C161.458 188.715 162.693 196.49 163.638 204.266C166.763 229.626 166.69 255.641 166.69 255.641Z" fill="#88BAC8"/>
<path d="M117.336 98.98C117.336 99.0526 117.336 99.1253 117.336 99.1253L117.263 101.16C117.191 102.904 115.737 104.212 113.993 104.139C112.249 104.067 110.941 102.541 111.087 100.869L111.159 98.8346C111.159 98.4713 111.305 98.0353 111.45 97.7446L117.263 98.0353C117.263 98.326 117.336 98.6166 117.336 98.98Z" fill="#423232"/>
<path d="M147.71 100.579L147.637 102.468C147.565 104.067 146.184 105.302 144.585 105.229C142.987 105.157 141.751 103.776 141.824 102.177L141.897 100.288C141.897 99.9245 141.969 99.5612 142.115 99.2705L147.565 99.4885C147.71 99.8518 147.71 100.215 147.71 100.579Z" fill="#423232"/>
<path d="M124.602 89.0246C126.201 89.2426 127.436 87.5713 126.855 85.9726C126.564 85.1006 126.056 84.3013 125.256 83.7926C122.786 82.2666 113.557 82.1213 108.688 85.6093C104.401 88.8066 117.336 88.0073 124.602 89.0246Z" fill="#423232"/>
<path d="M144.731 89.824C143.423 89.824 142.623 88.1527 143.277 86.772C143.641 86.0453 144.149 85.3913 144.876 85.028C147.129 83.938 153.16 84.592 155.849 88.298C158.247 91.568 150.762 89.7513 144.731 89.824Z" fill="#423232"/>
<path d="M122.059 98.1805L117.19 97.9625L111.377 97.7445L110.069 97.6719" stroke="#423232" stroke-width="2.26026" stroke-miterlimit="10" stroke-linecap="round" stroke-linejoin="round"/>
<path d="M150.762 99.6338L147.565 99.4885L142.115 99.2705H141.897" stroke="#423232" stroke-width="2.26026" stroke-miterlimit="10" stroke-linecap="round" stroke-linejoin="round"/>
<path d="M136.992 129.939C135.109 130.768 134.204 129.11 131.266 130.542C129.157 131.521 128.026 131.823 125.465 130.316C123.807 129.261 121.773 130.768 119.814 127.905" stroke="#423232" stroke-width="2.26026" stroke-miterlimit="10" stroke-linecap="round" stroke-linejoin="round"/>
<path d="M158.846 74.6766C158.628 73.5866 158.338 72.424 157.974 71.334C157.611 70.244 156.739 69.2993 155.576 69.0813C151.798 68.4273 148.164 61.8873 142.932 61.1606C126.292 58.908 115.174 60.2886 99.5504 66.3926C83.4184 72.642 100.713 95.2413 89.1591 102.653C88.5777 100.619 85.7437 92.3346 76.4424 93.4973C67.6497 94.5873 64.3071 114.934 82.4737 121.91C74.5531 134.845 75.1344 129.685 69.3211 122.709C63.5077 115.733 51.8811 97.6393 59.7291 71.1886C67.5771 44.738 103.111 30.9313 136.174 44.3746C141.842 46.7 145.258 52.4406 150.199 53.3853C196.197 62.178 159.936 79.9086 158.846 74.6766Z" fill="#423232"/>
<path d="M114.156 60.943C114.156 60.943 107.98 59.1264 104.274 68.791C100.568 78.4557 87.6331 91.7537 76.8784 76.2757C66.1238 60.8704 82.2558 48.5171 99.0418 53.531C115.828 58.545 113.938 54.7664 114.156 60.943Z" fill="#423232"/>
<path d="M124.838 53.8944C124.838 53.8944 141.188 64.2858 151.943 60.2164C158.701 57.6731 166.331 48.2991 161.026 41.3231C154.704 32.9664 135.157 39.2884 124.257 35.8004C107.907 30.5684 82.5464 27.0804 70.6291 46.7004C67.6498 51.6418 64.9611 56.6558 60.7464 60.5798C56.3864 64.6491 52.0264 71.2618 51.6631 81.5804C51.0091 102.145 67.1411 120.021 67.1411 120.021C67.1411 120.021 57.5491 84.8504 75.6431 79.6184C93.7371 74.3864 98.7511 56.2924 110.741 56.2924C122.731 56.2924 117.136 42.7764 124.838 53.8944Z" fill="#423232"/>
<path d="M140.752 63.1227C140.752 63.1227 153.905 79.5453 163.788 78.6007C173.67 77.656 184.788 56.4374 157.611 49.1707C130.434 41.904 140.752 63.1227 140.752 63.1227Z" fill="#423232"/>
<path d="M114.156 60.9427C114.156 60.9427 122.804 82.3067 145.766 84.85C168.802 87.466 178.103 45.3194 142.932 41.3227C107.762 37.3261 114.156 60.9427 114.156 60.9427Z" fill="#423232"/>
<path d="M95.7718 50.9147C95.7718 50.9147 101.149 75.3307 112.485 76.4207C123.821 77.5107 120.769 45.9734 105.945 43.7934C91.1211 41.6134 95.7718 50.9147 95.7718 50.9147Z" fill="#423232"/>
<path d="M147.203 110.394C145.241 107.996 142.698 106.324 139.646 106.252C136.449 106.179 131.435 106.906 126.421 110.902C119.881 116.134 106.801 115.335 101.641 114.826C100.188 114.681 98.8073 115.408 98.1533 116.716C96.6999 119.622 94.7379 125.654 95.6826 135.391C96.9179 148.689 107.745 160.752 123.005 159.734C143.061 158.499 154.761 142.367 155.487 120.785C155.342 114.826 151.781 116.062 147.203 110.394Z" fill="white"/>
<path d="M120.389 114.827C120.389 114.827 150.982 128.633 153.598 118.605" stroke="#EDF3F4" stroke-width="2.26026" stroke-miterlimit="10" stroke-linecap="round" stroke-linejoin="round"/>
<path d="M108.036 124.709C108.036 124.709 138.919 142.367 152.799 132.775" stroke="#EDF3F4" stroke-width="2.26026" stroke-miterlimit="10" stroke-linecap="round" stroke-linejoin="round"/>
<path d="M106.946 137.208C106.946 137.208 122.86 151.523 145.75 146.364" stroke="#EDF3F4" stroke-width="2.26026" stroke-miterlimit="10" stroke-linecap="round" stroke-linejoin="round"/>
<path d="M111.161 116.062C111.161 116.062 108.109 120.277 106.873 131.395C105.42 144.765 111.742 155.883 111.742 155.883" stroke="#EDF3F4" stroke-width="2.26026" stroke-miterlimit="10" stroke-linecap="round" stroke-linejoin="round"/>
<path d="M101.06 116.643C101.06 116.643 92.7033 110.83 86.8173 100.802" stroke="white" stroke-width="2.26026" stroke-miterlimit="10" stroke-linecap="round" stroke-linejoin="round"/>
<path d="M82.53 123.401C84.2014 128.851 88.3434 137.717 98.8074 145.71" stroke="white" stroke-width="2.26026" stroke-miterlimit="10" stroke-linecap="round" stroke-linejoin="round"/>
</g>
</svg>
