<svg width="13" height="11" viewBox="0 0 13 11" fill="none" xmlns="http://www.w3.org/2000/svg">
<path d="M1.28546 1.28595L5.21194 4.25108L5.21325 4.25217C5.64923 4.57189 5.86735 4.73185 6.10626 4.79364C6.31743 4.84826 6.5394 4.84826 6.75057 4.79364C6.98969 4.73179 7.20845 4.57137 7.6452 4.25108C7.6452 4.25108 10.1637 2.31837 11.5715 1.28595M0.642578 7.5863V2.70041C0.642578 1.98032 0.642578 1.62 0.782718 1.34496C0.905988 1.10303 1.10254 0.906476 1.34447 0.783206C1.61951 0.643066 1.97983 0.643066 2.69992 0.643066H10.1573C10.8774 0.643066 11.237 0.643066 11.512 0.783206C11.7539 0.906476 11.9512 1.10303 12.0744 1.34496C12.2144 1.61973 12.2144 1.97961 12.2144 2.6983V7.58847C12.2144 8.30716 12.2144 8.66652 12.0744 8.94129C11.9512 9.18322 11.7539 9.38012 11.512 9.50339C11.2372 9.64339 10.8779 9.64339 10.1592 9.64339H2.69781C1.97912 9.64339 1.61924 9.64339 1.34447 9.50339C1.10254 9.38012 0.905988 9.18322 0.782718 8.94129C0.642578 8.66625 0.642578 8.30639 0.642578 7.5863Z" stroke="#1346A2" stroke-width="1.28576" stroke-linecap="round" stroke-linejoin="round"/>
</svg>
