<svg width="51" height="39" viewBox="0 0 51 39" fill="none" xmlns="http://www.w3.org/2000/svg">
<path d="M45.6369 32.1932C45.9479 32.2138 46.1966 32.2138 46.1344 32.1932C46.2381 32.2138 46.632 32.2138 46.7979 32.2548C46.3832 32.2753 45.8649 32.2548 45.3259 32.1932C45.2015 32.1932 45.3259 32.2138 45.3466 32.2343C44.9735 32.1932 44.5588 32.1316 44.7869 32.0906C45.1393 32.1316 45.243 32.1316 45.6369 32.1932Z" fill="#0079A2"/>
<path d="M41.0762 31.8853C41.1799 31.8853 41.2628 31.9058 41.3457 31.9058C41.2628 31.9058 41.1799 31.9058 41.0762 31.8853Z" fill="#0079A2"/>
<path d="M41.7807 27.4509C41.8218 27.4713 41.8218 27.4713 41.7807 27.4509V27.4509Z" fill="#0079A2"/>
<path d="M40.9102 31.8853C40.8272 31.8853 40.7443 31.8853 40.6406 31.8647C40.765 31.8647 40.848 31.8853 40.9102 31.8853Z" fill="#0079A2"/>
<path d="M44.9939 28.2309C45.0768 28.272 44.4963 27.7177 45.2012 28.3746C45.0975 28.313 45.0353 28.272 44.9939 28.2309Z" fill="#0079A2"/>
<path d="M41.0763 31.9058C41.0348 31.8853 40.9933 31.8853 40.9104 31.8853C40.9726 31.8853 41.0348 31.8853 41.0763 31.9058C41.097 31.9058 41.097 31.9058 41.0763 31.9058Z" fill="#0079A2"/>
<path d="M44.0195 10.9863C43.9573 11.0479 43.9159 11.089 43.8744 11.1095L44.0195 10.9863Z" fill="#0079A2"/>
<path d="M1.62305 22.175C1.60232 22.0107 1.60232 21.8465 1.60232 21.6822C1.60232 21.6412 1.60232 21.6001 1.62305 21.5796L1.62305 22.175Z" fill="#0079A2"/>
<path d="M41.8224 12.9566C41.8431 12.9361 41.8845 12.9155 41.9053 12.895C41.8845 12.9155 41.8638 12.9361 41.8224 12.9566Z" fill="#0079A2"/>
<path d="M1.64411 18.1923C1.64411 18.1512 1.64411 18.1102 1.64411 18.0691C1.66484 18.1102 1.64411 18.1512 1.64411 18.1923Z" fill="#0079A2"/>
<path d="M11.8855 19.9984C11.8855 19.9778 11.9063 19.9573 11.9063 19.9163C11.9063 19.9368 11.9063 19.9778 11.8855 19.9984Z" fill="#0079A2"/>
<path d="M23.7653 31.3314C23.786 31.3314 23.8067 31.3314 23.8897 31.3314C23.8897 31.3109 23.8275 31.3314 23.7653 31.3314Z" fill="#0079A2"/>
<path d="M30.7103 31.4951C30.7517 31.4951 30.7517 31.5156 30.7725 31.5156L30.7103 31.4951Z" fill="#0079A2"/>
<path d="M8.17481 22.4622C8.15408 22.5032 8.13335 22.5237 8.11261 22.5443C7.92603 22.7496 8.05042 22.6059 8.17481 22.4622Z" fill="#0079A2"/>
<path d="M6.68144 26.9169C6.7851 26.7937 6.86803 26.691 6.97168 26.5679C6.82656 26.7526 6.70217 26.9374 6.68144 26.9169Z" fill="#0079A2"/>
<path d="M6.97231 26.5474C7.0967 26.3832 7.24183 26.1779 7.36622 26.0137C7.22109 26.2395 7.0967 26.4037 6.97231 26.5474Z" fill="#0079A2"/>
<path d="M44.1025 32.0291C44.0196 32.0291 43.9574 32.0291 43.9367 32.0085L44.1025 32.0291Z" fill="#0079A2"/>
<path d="M44.4346 32.0703L44.1029 32.0498C44.2065 32.0498 44.3516 32.0498 44.4346 32.0703Z" fill="#0079A2"/>
<path d="M39.7695 31.8441L39.7285 31.8237C39.749 31.8237 39.7695 31.8237 39.7695 31.8441Z" fill="#0079A2"/>
<path d="M39.6871 31.8035L39.7285 31.824C39.5419 31.783 38.8371 31.824 38.5675 31.783C38.8578 31.783 39.2932 31.783 39.6871 31.8035Z" fill="#0079A2"/>
<path d="M3.36497 31.105L3.48936 31.0845L3.55156 31.0845L3.65522 31.0845L3.8418 31.1255L3.55156 31.105L3.36497 31.105Z" fill="#0079A2"/>
<path d="M38.6087 4.64247C38.4222 4.60141 38.3807 4.62194 38.1941 4.58088C38.049 4.58088 37.9246 4.62194 37.9661 4.62194C37.9039 4.62194 37.738 4.64247 37.6551 4.62194C37.8417 4.56035 38.0905 4.53982 38.36 4.56035C38.4222 4.53982 38.36 4.53982 38.3392 4.51929C38.5258 4.56035 38.7331 4.60141 38.6087 4.64247Z" fill="#0079A2"/>
<path d="M40.3916 4.58083L40.2672 4.58083C40.2879 4.5603 40.3294 4.5603 40.3916 4.58083C40.3916 4.5603 40.3916 4.5603 40.3916 4.58083Z" fill="#0079A2"/>
<path d="M25.734 5.60742C25.6925 5.64848 26.0864 5.62795 25.6096 5.64848C25.6718 5.62795 25.7132 5.62795 25.734 5.60742Z" fill="#0079A2"/>
<path d="M40.3917 4.53979C40.371 4.56032 40.371 4.56032 40.3917 4.53979V4.53979Z" fill="#0079A2"/>
<path d="M26.501 22.6265C26.3766 22.7086 26.2522 22.7907 26.1485 22.8318C26.2729 22.7702 26.3973 22.7086 26.501 22.6265Z" fill="#0079A2"/>
<path d="M25.0498 23.1604C24.9876 23.181 24.9047 23.1604 24.8425 23.1604C24.8218 23.1604 24.8218 23.1399 24.801 23.1399C24.884 23.1604 24.9669 23.1604 25.0498 23.1604Z" fill="#0079A2"/>
<path d="M47.6689 5.36047C47.6689 5.36047 47.6894 5.34015 47.71 5.31982C47.71 5.31982 47.6894 5.34015 47.6689 5.36047Z" fill="#0079A2"/>
<path d="M45.3877 4.70392C45.3672 4.68359 45.3672 4.68359 45.3672 4.68359L45.3877 4.70392Z" fill="#0079A2"/>
<path d="M32.8252 18.2334C32.8045 18.2539 32.7837 18.2539 32.7837 18.2745C32.6593 18.3566 32.7423 18.295 32.8252 18.2334Z" fill="#0079A2"/>
<path d="M38.2354 14.0657C38.1732 14.1067 38.111 14.1478 38.0488 14.1889C38.1524 14.1273 38.2146 14.0657 38.2354 14.0657Z" fill="#0079A2"/>
<path d="M26.543 22.606C26.5225 22.606 26.5225 22.6263 26.5019 22.6263L26.543 22.606Z" fill="#0079A2"/>
<path d="M38.0693 14.1887C37.9864 14.2503 37.9035 14.3324 37.8206 14.394C37.9035 14.3119 37.9864 14.2503 38.0693 14.1887Z" fill="#0079A2"/>
<path d="M39.0234 4.64235L38.9405 4.64235C38.982 4.62182 39.0027 4.62182 39.0234 4.64235Z" fill="#0079A2"/>
<path d="M38.7746 4.62183L38.9404 4.62183C38.8782 4.64236 38.816 4.64236 38.7746 4.62183Z" fill="#0079A2"/>
<path d="M41.5938 4.53965C41.4486 4.53965 41.2413 4.58071 41.0547 4.58071L41.034 4.56018C41.1377 4.58071 41.4694 4.51912 41.5938 4.53965Z" fill="#0079A2"/>
<path d="M40.7022 11.9302L40.4741 12.1149L40.5985 11.9712L40.7022 11.9302Z" fill="#0079A2"/>
<path d="M0.213199 5.6277C0.233931 5.54558 0.213201 5.2787 0.233932 5.15552C0.275396 5.44293 0.275396 5.833 0.233933 6.22307C0.254664 6.30519 0.254664 6.22307 0.275395 6.20254C0.254664 6.46942 0.192467 6.77737 0.151004 6.61313C0.192467 6.34625 0.192469 6.28466 0.233933 5.99724C0.254664 5.77141 0.233931 5.60717 0.213199 5.6277Z" fill="#0079A2"/>
<path d="M0.130642 9.26169C0.130642 9.17958 0.13064 9.11799 0.151372 9.0564C0.13064 9.13852 0.130642 9.20011 0.130642 9.26169Z" fill="#0079A2"/>
<path d="M17.6279 4.29321C17.545 4.31374 17.4828 4.31374 17.4414 4.33427C17.5035 4.31374 16.9231 4.29321 17.6279 4.29321Z" fill="#0079A2"/>
<path d="M0.151372 9.26174C0.13064 9.28227 0.130642 9.32332 0.130642 9.38491C0.130642 9.34385 0.13064 9.30279 0.151372 9.26174C0.151372 9.24121 0.151372 9.24121 0.151372 9.26174Z" fill="#0079A2"/>
<path d="M46.3832 3.26685C46.4454 3.26685 46.4869 3.28738 46.5283 3.28738L46.3832 3.26685Z" fill="#0079A2"/>
<path d="M33.509 33.1377C33.6334 33.1172 33.737 33.1172 33.8614 33.1172C33.8821 33.1172 33.9236 33.1172 33.9443 33.1377L33.509 33.1377Z" fill="#0079A2"/>
<path d="M0.0479797 28.8881L0.0272506 29.0318C0.00652151 28.6007 0.0272505 27.9027 0.0272505 27.4305C0.0479833 27.2868 0.0479833 27.0199 0.0687124 27.1841C-0.0349445 25.747 0.15164 24.4331 0.0687121 23.1603C0.0687121 23.304 0.0479792 23.5298 0.0479792 23.4066L0.068712 22.3185C0.110178 22.4007 0.0894449 22.4623 0.110178 22.6881C0.130907 22.5444 0.15164 22.2364 0.15164 21.9695C0.130907 22.4623 0.0894448 21.9695 0.0687119 21.7437C0.0894448 21.7848 0.0894448 21.7027 0.110178 21.7232C0.0479828 21.1483 0.193102 21.6205 0.15164 20.8609L0.13091 20.902C0.15164 20.6146 0.172372 20.3477 0.172372 20.0397C0.130907 19.9166 0.15164 20.3477 0.110178 20.3682C0.110178 19.9371 0.193101 19.506 0.151639 19.0954C0.151639 19.2801 0.13091 19.547 0.13091 19.7318C0.0894446 19.3007 0.0894446 19.2391 0.0894446 18.9311L0.0894446 18.9722L0.0687116 18.2331L0.0894445 18.4179C0.193105 17.8636 0.110177 17.2887 0.193105 16.5497C0.110177 17.2682 0.151639 16.6729 0.110177 16.7139C0.0894444 16.5291 0.0894443 16.2417 0.0687115 16.3238C0.110177 15.9748 0.0479824 15.749 0.110177 15.2358C0.0894442 15.2152 0.110177 14.8662 0.0687113 14.9483C0.0894442 14.4967 0.0894442 15.051 0.110177 15.0099C0.172372 14.3119 0.068715 13.3676 0.13091 12.3411C0.172372 11.5404 0.213834 11.3351 0.234566 10.6987C0.234566 10.6166 0.234566 10.5344 0.234566 10.4523C0.213833 10.3291 0.193104 10.7397 0.193104 10.7397C0.172372 10.3086 0.172371 9.95961 0.193104 9.54901C0.172371 9.63113 0.172371 9.54901 0.151639 9.42583C0.151639 9.09736 0.213837 9.2 0.193104 8.76888C0.172371 8.851 0.151639 8.93312 0.130909 9.09736C0.151639 8.70729 0.172371 8.31722 0.193104 7.90663C0.172371 7.80398 0.151638 8.15298 0.130909 8.29669C0.151638 7.84504 0.172371 7.10596 0.213833 6.98279L0.213833 7.20861C0.213833 7.14702 0.172371 7.22914 0.172371 7.31126C0.130906 7.70133 0.172371 7.86557 0.193104 7.90663L0.213833 7.61921C0.296761 7.90663 0.193104 8.78941 0.193104 9.36424L0.255295 9.15894C0.276028 7.6808 0.276032 6.20265 0.296761 4.72451C0.296761 4.70398 0.296761 4.68345 0.296761 4.66292C0.276032 4.68345 0.234566 4.74504 0.213833 4.74504L0.213833 4.90928L0.151638 5.07351L0.172371 4.68345C0.151638 4.66292 0.151638 4.60133 0.151638 4.49868C0.172371 4.3755 0.234566 4.1702 0.483345 4.00596C0.607735 3.94438 0.752857 3.90332 0.89798 3.92385L1.22969 3.9649L1.437 3.94438L0.877247 3.90332C1.20895 3.88279 1.39554 3.92385 1.60286 3.9649C1.66505 3.94438 1.74798 3.94438 1.87237 3.94438L2.49432 4.04702C2.57725 4.02649 2.20407 3.98543 2.63944 3.98543C2.92969 4.02649 2.3492 4.02649 2.84676 4.08808C3.15773 4.06755 3.07481 4.04702 3.42725 4.08808C3.48944 4.06755 3.40652 4.04702 3.26139 4.04702C3.5931 4.08808 4.1114 4.10861 4.27725 4.14967C4.60896 4.12914 5.37603 4.21126 5.33456 4.14967C5.43822 4.1702 5.89432 4.23179 6.2053 4.23179C5.66627 4.12914 7.32481 4.27285 7.17969 4.1702C7.57359 4.25232 8.6309 4.25232 9.33578 4.31391C9.29432 4.31391 9.21139 4.29338 9.1492 4.29338C9.5431 4.29338 9.66749 4.27285 9.91627 4.27285C9.95774 4.33444 10.6004 4.35497 10.9321 4.39603C11.4297 4.35497 10.6419 4.31391 10.787 4.27285C10.7663 4.31391 11.637 4.33444 11.4712 4.3755C11.8443 4.35497 11.8029 4.35497 11.9894 4.31391C12.0516 4.39603 12.3419 4.33444 12.6529 4.3755C13.1919 4.33444 12.798 4.31391 13.3992 4.33444C13.6894 4.31391 13.1504 4.27285 13.1504 4.27285C13.7516 4.27285 13.4407 4.33444 13.5651 4.35497C14.2907 4.3755 13.8968 4.31391 14.1455 4.29338C14.6016 4.31391 14.9541 4.35497 15.2858 4.35497C15.3065 4.35497 15.3687 4.33444 15.3065 4.33444C15.7833 4.3755 16.737 4.33444 17.2968 4.3755C17.3382 4.3755 17.359 4.35497 17.3797 4.35497C17.2968 4.3755 17.276 4.41656 17.2968 4.43709C17.5663 4.43709 17.7943 4.45762 17.898 4.43709C17.7321 4.43709 17.7114 4.41656 17.6285 4.41656L17.9187 4.43709C18.1675 4.3755 17.5248 4.41656 17.5248 4.3755C18.0846 4.39603 18.7272 4.41656 19.1626 4.39603C19.2455 4.33444 18.1675 4.39603 18.7272 4.33444L18.0638 4.3755C18.6443 4.25232 17.7321 4.35497 18.1882 4.25232C19.059 4.21126 19.1626 4.27285 20.0333 4.23179C20.2199 4.25232 19.9712 4.27285 20.1577 4.29338C21.4016 4.31391 21.1321 4.12914 22.0443 4.1702C22.2724 4.19073 22.376 4.27285 23.0187 4.21126L22.7907 4.1702C23.6407 4.12914 23.2675 4.23179 24.159 4.1702C23.9931 4.14967 23.4955 4.1702 23.6199 4.1702C24.1797 4.10861 24.0346 4.19073 24.4699 4.1702L24.5529 4.10861C25.4443 4.06755 26.4394 4.06755 27.4346 4.00596C27.3724 3.98543 27.2065 3.98543 27.4346 3.9649C28.6785 3.90331 30.109 3.78013 31.3114 3.65696L31.7675 3.65696C31.8712 3.65696 31.9748 3.6159 31.8504 3.6159C32.3272 3.55431 31.8712 3.63643 32.0992 3.63643C32.4102 3.6159 32.4931 3.57484 32.3272 3.57484C33.1565 3.55431 34.6907 3.47219 35.5614 3.34901L35.3955 3.34901C36.0797 3.28742 36.1626 3.39007 36.8053 3.28742L36.6809 3.28742C38.1529 3.14371 39.7907 3.10265 40.9309 3C41.1382 3.06159 42.4029 2.95894 42.5065 3.06159C43.3358 3.04106 43.1077 3.02053 44.3102 3.06159C44.6212 3.08212 44.787 3.14371 45.1809 3.2053L45.2224 3.16424C45.409 3.2053 45.5748 3.22583 45.7614 3.26689L46.0309 3.22583C46.1553 3.24636 46.2797 3.26689 46.4041 3.28742C46.259 3.26689 46.0931 3.26689 46.1138 3.28742C46.4041 3.32848 46.7565 3.36954 47.026 3.4106C47.2955 3.43113 47.5029 3.43113 47.5236 3.43113C47.9797 3.53378 48.4151 3.63642 48.8504 3.73907C48.8297 3.71854 48.7053 3.67748 48.5602 3.63642C48.7882 3.69801 48.8297 3.69801 48.8504 3.69801C48.8712 3.69801 48.8712 3.69801 48.8712 3.67748C48.8712 3.67748 48.8712 3.67748 48.8919 3.67748C48.8919 3.67748 48.8919 3.67748 48.9126 3.67748C48.9333 3.65695 48.9748 3.63642 49.0163 3.59536C48.9126 3.65695 49.0785 3.59536 49.0992 3.59536C49.3065 3.51325 49.6797 3.47219 49.9907 3.73907C50.1565 3.86225 50.2602 4.06755 50.2809 4.25232C50.2809 4.43709 50.3016 4.56026 50.3016 4.70397L50.3224 4.60132C50.4053 5.60728 50.4468 6.71589 50.5297 7.8245C50.4882 7.41391 50.4468 7.51656 50.4468 7.84503L50.509 7.96821C50.4882 8.17351 50.4675 7.61921 50.4468 8.07086C50.4675 8.48146 50.5297 8.35828 50.5297 8.11192L50.5504 8.62517C50.5712 8.6457 50.5712 8.54305 50.5919 8.50199C50.5712 8.70728 50.6955 9.38477 50.6541 9.69271L50.6748 9.71325C50.7163 10.8629 50.7163 11.3762 50.7577 12.2795C50.7163 12.3 50.737 12.649 50.7163 12.9364C50.7577 13.6139 50.8199 14.353 50.8407 15.1742C50.8407 15.749 50.7992 15.3384 50.7992 15.6053C50.8407 15.6464 50.8614 16.447 50.8821 16.0364L50.8821 18.5C50.8614 18.3768 50.8614 18.2126 50.8407 18.2947C50.8407 18.5205 50.8614 18.8079 50.8821 18.7669L50.8821 18.7053C50.8407 20.0808 51.0273 21.8874 50.9443 22.996L50.9443 22.9344L50.9029 24.0841C50.9029 24.6179 50.9443 23.7762 50.9651 24.1662C50.8821 25.398 50.9443 26.1166 50.8821 27.1225C50.9858 27.9026 50.7992 29.9146 50.8407 30.9616L50.8199 30.9C50.7785 31.1669 50.8199 31.2285 50.8199 31.4338C50.7992 31.4132 50.7992 31.1258 50.7785 31.3106C50.737 31.8854 50.7163 32.4808 50.6955 33.0762C50.6955 33.2609 50.6333 33.4457 50.509 33.5894C50.3846 33.7331 50.2187 33.8563 50.0114 33.8768L49.8663 33.8768L49.7626 33.8768L49.5346 33.8768L49.0785 33.8563C47.8553 33.8152 46.6529 33.7536 45.4504 33.7126C44.5797 33.6715 44.9529 33.5483 43.8541 33.5483L44.1651 33.6099C42.4029 33.4662 40.5577 33.4252 38.8163 33.302C38.9199 33.3225 38.9199 33.343 39.0858 33.343C38.7126 33.3636 37.7382 33.2815 37.7382 33.2609C37.4687 33.2609 37.676 33.2815 37.5102 33.302C37.137 33.302 36.598 33.2199 36.3907 33.2404C36.3699 33.2404 36.4114 33.2404 36.4736 33.2609C36.1626 33.2404 35.4577 33.2199 35.6651 33.1993C35.0224 33.1993 34.4212 33.1378 33.9029 33.1378C33.5712 33.0762 32.7833 33.1172 32.6797 33.0556C32.7212 33.1378 31.5394 33.0762 31.1248 33.0351C31.2699 33.0556 30.7724 33.0556 30.9175 33.0762C30.4407 33.0556 30.026 33.0351 30.109 32.994C29.2382 33.0556 28.3675 32.8709 27.8907 32.9735C26.5016 32.8914 25.2163 32.8298 23.9516 32.7887C23.9931 32.8503 25.3407 32.8298 25.2785 32.8914C24.0968 32.8298 23.4126 32.7682 22.2309 32.7477C21.9199 32.7477 22.3968 32.7887 22.5004 32.7887C21.3187 32.7272 20.1992 32.7477 19.1419 32.6861C19.1419 32.6861 19.2663 32.7066 19.3699 32.7066C19.1626 32.7066 18.8931 32.7066 18.9138 32.6861L19.1212 32.7066C19.4529 32.6656 18.2919 32.604 18.2504 32.5834C18.6029 32.6861 17.2138 32.5834 17.7736 32.7066C17.6285 32.7066 17.4626 32.6861 17.5041 32.6656C17.2968 32.6656 17.2346 32.6861 17.4419 32.7066C16.6955 32.6861 16.9651 32.645 16.2809 32.645C16.2809 32.6656 16.426 32.6656 16.4882 32.6861C16.1565 32.645 15.8041 32.6245 15.2236 32.6245C15.2443 32.6245 15.2029 32.645 15.3065 32.645C14.3529 32.6245 13.6687 32.5424 12.6114 32.5629C12.9224 32.6245 12.2382 32.5834 12.1968 32.645L11.6163 32.6245L11.8443 32.604C11.3468 32.604 10.8907 32.5629 10.4553 32.5629L10.8285 32.5834L9.87481 32.5629L10.4138 32.5424C9.89554 32.5013 10.476 32.4603 9.79188 32.4808C9.93701 32.4808 9.29432 32.4808 9.02481 32.5219C8.77603 32.5013 8.50652 32.4808 8.13335 32.5013C8.02969 32.5219 8.21628 32.5629 8.15408 32.5834C7.9053 32.5424 6.97237 32.5629 6.6614 32.5219C6.76505 32.5424 6.76505 32.5629 6.74432 32.5629L6.537 32.5219C6.30896 32.5424 6.2675 32.5424 6.30896 32.5629C5.60408 32.5629 6.53701 32.4808 5.68701 32.5219C5.7492 32.5219 5.72847 32.5219 5.85286 32.5424C5.00286 32.5629 4.21506 32.5219 3.44799 32.5424C3.21993 32.604 4.13213 32.5629 3.86262 32.604C3.30286 32.604 2.72237 32.5834 2.16262 32.5834C1.87237 32.5834 1.58213 32.5834 1.31262 32.5629L0.897982 32.5629L0.794325 32.5629L0.669932 32.5629C0.587004 32.5424 0.524809 32.5219 0.462615 32.4808C0.524809 32.5219 0.607737 32.5424 0.669932 32.5424C0.607737 32.5013 0.379691 32.4397 0.213835 32.2139C0.130908 32.1113 0.0894457 31.947 0.0894457 31.8033C0.0894457 31.6596 0.0894456 31.5159 0.0894456 31.3927C0.0894456 31.5159 0.0479799 31.557 0.0479799 31.5364C-0.0349441 30.7563 0.00651782 29.9967 0.0479797 28.8881ZM0.110178 24.7205C0.110178 24.7411 0.130907 24.7411 0.15164 24.7411C0.15164 24.6179 0.15164 24.4742 0.15164 24.351C0.130907 24.3715 0.110178 24.4742 0.110178 24.7205ZM47.2333 32.3166C47.1919 32.296 47.1504 32.255 47.109 32.2344L46.9638 32.1934L47.0675 32.1934C46.9638 32.1113 46.8394 32.0086 46.6736 31.8649L46.0516 31.2285L45.8236 31.0642L46.3833 31.5775C46.0516 31.3106 45.8651 31.1053 45.6577 30.9C45.5955 30.8589 45.4919 30.7974 45.3468 30.6742L44.7455 30.0377C44.6419 29.9967 44.9943 30.3457 44.559 29.9556C44.2894 29.6477 44.8907 30.1815 44.4138 29.7093C44.0821 29.4424 44.1443 29.545 43.8126 29.196C43.7504 29.155 43.8126 29.2371 43.9577 29.3808C43.6468 29.0728 43.1077 28.5801 42.9626 28.3954C42.6102 28.1285 41.8638 27.3689 41.8638 27.451C41.7809 27.3483 41.3248 26.8762 41.0346 26.5887C41.5114 27.1636 39.9151 25.5417 39.998 25.747C39.6455 25.3159 38.5675 24.351 37.9041 23.6325C37.9455 23.6735 38.0077 23.7556 38.0699 23.8172C37.8626 23.6325 37.7382 23.5093 37.6138 23.4066C37.4894 23.2834 37.3443 23.1397 37.3236 22.8934C37.3443 22.8728 37.3443 22.7702 37.3858 22.647C37.4273 22.5238 37.4894 22.3596 37.6138 22.257C37.7382 22.1543 37.9248 22.0517 38.0907 22.0517C38.2773 22.0311 38.4431 22.1132 38.5468 22.1954C38.5882 22.2159 38.6297 22.2364 38.6504 22.257C38.6712 22.2775 38.6919 22.298 38.7126 22.298C38.7126 22.3391 38.7333 22.3391 38.7333 22.3391C38.7333 22.3185 38.7126 22.2775 38.6297 22.2159C38.5882 22.1748 38.5468 22.1338 38.5053 22.1132C38.4638 22.0927 38.4224 22.0517 38.3809 22.0311C38.298 22.0106 38.2565 21.9901 38.3394 21.9901C38.3394 21.9901 38.3602 22.0106 38.3809 22.0106C38.4224 22.0311 38.4638 22.0517 38.526 22.0927C38.5675 22.1338 38.6504 22.1954 38.6919 22.2364C38.7333 22.2775 38.7748 22.3391 38.837 22.3801C39.0236 22.5649 39.1894 22.7497 39.0858 22.6881C39.4797 23.0166 39.4175 22.9755 39.6455 23.1397C39.6663 23.2629 39.9773 23.4887 40.2675 23.8172C40.8273 24.3099 40.4541 23.8993 41.0346 24.4742C41.3248 24.7205 40.8273 24.2073 40.8273 24.2073C41.4285 24.7821 41.076 24.5152 41.1797 24.6589C41.8846 25.357 41.5529 24.9464 41.8016 25.1517C42.237 25.5828 42.548 25.9523 42.9004 26.2603C42.9419 26.2808 43.0041 26.3424 42.9212 26.2603C43.3773 26.753 44.3516 27.5947 44.8699 28.149C44.9114 28.1901 44.9321 28.1901 44.9529 28.2106C44.8492 28.149 44.8077 28.149 44.8077 28.1901C45.0773 28.4364 45.2846 28.6828 45.4297 28.7444C45.2638 28.5801 45.2638 28.5596 45.1809 28.4775L45.4504 28.7444C45.7407 28.9497 45.0773 28.3748 45.098 28.3338C45.6577 28.8676 46.2797 29.504 46.7151 29.8735C46.8394 29.9146 45.7199 28.9291 46.3212 29.4219L45.637 28.8265C46.1968 29.2371 45.2224 28.457 45.7614 28.8265C46.6529 29.6272 46.7358 29.7503 47.6273 30.5305C47.8138 30.7358 47.5236 30.5099 47.7102 30.6947C48.1663 31.1258 48.4358 31.3517 48.6431 31.5159C48.7468 31.598 48.8297 31.6391 48.9126 31.7007C49.0163 31.7828 49.0163 31.7623 49.037 31.7828C49.0577 31.7828 49.0577 31.8033 49.0785 31.8238L49.0785 31.8033C49.0785 31.8033 49.0992 31.7828 49.1199 31.7623C49.1199 31.7623 49.1199 31.7623 49.1199 31.7417C49.1199 31.7212 49.1199 31.7007 49.1199 31.6801C49.1199 31.6391 49.1407 31.598 49.1407 31.557C49.1614 31.3722 49.1821 31.1258 49.1821 30.6947L49.1199 31.0026C49.1614 29.853 49.2236 30.3457 49.2236 29.155C49.2029 29.3603 49.1821 30.0583 49.1821 29.8735C49.1614 29.0934 49.2443 29.3192 49.2443 28.7238L49.2029 28.6007C49.2443 27.3894 49.3065 26.0344 49.3273 24.6795C49.3065 24.7616 49.2858 24.9874 49.2858 24.6589C49.3273 22.955 49.3065 21.0046 49.2443 19.3623L49.3065 18.7669C49.3065 18.6232 49.2858 18.5 49.2651 18.6642C49.2443 18.0278 49.2858 18.6232 49.3065 18.3152C49.3065 17.9457 49.2651 17.843 49.2651 18.0689C49.3065 16.9397 49.2858 14.8252 49.2029 13.6344L49.2029 13.8603C49.1407 12.9364 49.2651 12.8132 49.1821 11.951L49.1821 12.1152C49.1407 11.1093 49.0785 10.0417 49.037 9.05629C48.9955 8.56358 48.9748 8.07086 48.9541 7.61921C48.9333 7.39338 48.9126 7.16755 48.8919 6.96225C48.8919 6.8596 48.8712 6.75695 48.8712 6.6543L48.8712 6.57219C48.8712 6.55166 48.8712 6.5106 48.8712 6.5106L48.8712 6.44901C48.8919 6.42848 48.8919 6.36689 48.8919 6.28477L48.7468 6.42848C48.6224 6.55166 48.498 6.67483 48.3736 6.79801C48.1248 7.04437 47.9175 7.24967 47.8553 7.24967C47.0675 8.09139 47.3163 7.88609 46.1553 9.03576C45.8443 9.34371 45.637 9.44636 45.2431 9.81589L45.2638 9.85695L44.7041 10.3291L44.4553 10.6371L44.0821 10.9656C44.2272 10.8219 44.3724 10.6576 44.3516 10.6781C44.0614 10.945 43.709 11.2735 43.4187 11.5404C43.1492 11.8073 42.9419 12.0126 42.9419 12.0331L41.5114 13.2444C41.5529 13.2444 41.6773 13.1212 41.8224 12.998C41.3041 13.4291 41.8224 13.0801 41.159 13.5934C41.2212 13.5318 41.076 13.6344 41.0553 13.6344C40.7236 13.9629 39.9358 14.6199 39.3346 15.1126L39.459 15.051C38.4016 15.9543 37.1992 16.8987 35.976 17.8636C36.4114 17.5146 36.2663 17.5351 35.9138 17.8225L35.8102 17.9662C35.5614 18.1305 36.1833 17.6583 35.6651 18.0073C35.209 18.3768 35.3955 18.2947 35.6651 18.1099L35.0846 18.5205C35.0638 18.5616 35.1882 18.4589 35.2504 18.4589C35.0016 18.6232 34.3175 19.2391 33.9443 19.4444L33.9236 19.4854C32.6797 20.4298 32.0992 20.8199 31.0626 21.5589C31.0212 21.5384 30.6065 21.8258 30.2748 22.0106C29.5077 22.5649 28.6992 23.1808 27.7663 23.8172C27.0821 24.2278 27.559 23.9199 27.2272 24.0841C27.2065 24.1252 26.9577 24.2689 26.7712 24.3715C26.5846 24.4742 26.4394 24.5358 26.7297 24.4331C26.4187 24.5768 26.1492 24.6795 25.8797 24.7411C25.8175 24.7616 25.7553 24.7616 25.6931 24.7821C25.6309 24.7821 25.5687 24.8027 25.5065 24.8027C25.3821 24.8232 25.2577 24.8232 25.1333 24.8232C25.009 24.8232 24.8846 24.8027 24.7394 24.7821C24.6151 24.7411 24.4699 24.7205 24.3248 24.6589C24.0346 24.5563 23.7029 24.3715 23.3712 24.1046C23.537 24.2073 23.7236 24.3099 23.6407 24.2483C23.3712 24.0841 23.0602 23.8378 23.0809 23.8788L23.1431 23.9404C22.7699 23.6119 22.4175 23.2424 22.0443 22.8728C21.6712 22.5033 21.2772 22.1338 20.8833 21.7848C20.1163 21.0662 19.3699 20.3887 18.8309 19.855L18.8102 19.8755L17.6699 18.7874C17.1309 18.3152 17.9809 19.0954 17.5663 18.7669C16.3431 17.5762 15.5553 17.0013 14.5187 16.057C14.0626 15.749 13.337 15.1331 12.5492 14.4967C11.7614 13.8603 10.9529 13.2033 10.3309 12.7927L10.4138 12.8132C10.1236 12.5669 10.0407 12.5464 9.81261 12.3821C9.85408 12.3821 10.1443 12.608 9.97847 12.4642C7.4492 10.4934 4.60896 8.60464 1.81017 6.88014C1.78944 6.88014 1.81018 6.88014 1.78944 6.85961C1.76871 6.85961 1.74798 6.79802 1.72725 7.04437C1.70652 7.24967 1.68578 7.51656 1.70652 8.15298L1.76871 7.72186C1.68578 10.1238 1.72725 12.649 1.66506 15.0099C1.68578 14.8662 1.68579 14.8662 1.68579 14.6404C1.70652 14.8868 1.70652 15.3589 1.68579 15.749C1.66506 16.1391 1.66506 16.4881 1.64432 16.4881C1.64432 16.8576 1.66506 16.5702 1.68579 16.796C1.70652 17.2887 1.62359 18.0483 1.66506 18.3152C1.66506 18.3358 1.66506 18.2742 1.68579 18.1921C1.66506 18.6232 1.68579 19.5676 1.64432 19.2801C1.66506 20.1629 1.60286 20.9841 1.62359 21.6821C1.58213 22.1338 1.64432 23.2013 1.5614 23.345C1.62359 23.2834 1.60286 24.9053 1.5614 25.4596C1.58213 25.2748 1.58213 25.9523 1.60286 25.7265C1.60286 26.3629 1.58213 26.9583 1.54067 26.8351C1.62359 28.0053 1.45774 29.196 1.5614 29.8735L1.5614 30.2225L1.5614 30.2636L1.5614 30.2841L1.5614 30.3252L1.5614 30.3457L1.5614 30.3662L1.60286 30.3457L1.64432 30.3252C1.64432 30.3252 1.64432 30.3252 1.66506 30.3046L1.72725 30.2636C2.10042 30.0172 2.45286 29.7298 2.78457 29.4424C3.42725 28.847 3.98701 28.1901 4.5053 27.5126C4.46383 27.5126 4.17359 27.8821 3.88335 28.2311C3.5931 28.5801 3.30286 28.8881 3.30286 28.847C3.86262 28.2722 4.25652 27.7795 4.65042 27.2662C5.04432 26.7735 5.4175 26.2397 5.89432 25.5828C6.14311 25.2338 5.72847 25.747 5.64554 25.8702C6.64066 24.5768 7.5114 23.345 8.40286 22.1954C8.40286 22.1954 8.2992 22.3185 8.19554 22.4212C8.36139 22.1954 8.58945 21.8874 8.58945 21.9285L8.42359 22.1543C8.19554 22.5444 9.16993 21.3126 9.23213 21.2715C8.87969 21.6 10.0614 20.1219 9.52237 20.6556C9.64676 20.5119 9.79188 20.3272 9.79188 20.3682C9.95774 20.1424 9.9992 20.0603 9.81262 20.2656C10.1236 19.855 10.2272 19.7318 10.3309 19.6291C10.3724 19.5676 10.4346 19.506 10.4968 19.4238C10.559 19.3417 10.6833 19.157 10.9529 19.0954C10.9321 19.0748 10.7248 19.157 10.6212 19.2185C10.7455 19.1364 10.8699 19.0748 11.0358 19.0543C11.1809 19.0338 11.3468 19.0543 11.4919 19.1159C11.637 19.1775 11.7821 19.2801 11.8858 19.4649C11.9894 19.6291 11.9894 19.896 11.8651 20.0808C11.8858 20.0603 11.8858 20.0808 11.8858 20.0603C11.8858 20.0603 11.9065 20.0397 11.9273 19.9781C11.9273 19.9987 11.9273 19.9987 11.9065 20.0192C11.8858 20.0603 11.8651 20.1013 11.8236 20.1424C11.7821 20.204 11.7199 20.2656 11.6785 20.3272C11.5748 20.4503 11.4919 20.5735 11.3882 20.6967C11.2016 20.9431 11.0151 21.1689 10.8492 21.3947C10.476 21.8669 10.1236 22.3391 9.68823 22.9344C9.9992 22.6265 9.39798 23.345 9.39798 23.4477L8.92115 24.0636L9.08701 23.7967C8.67237 24.351 8.27847 24.8232 7.92603 25.3159L8.25774 24.9258L7.46993 25.9523L7.88457 25.357C7.4492 25.9113 7.86384 25.2543 7.32481 26.0139C7.4492 25.8702 6.91018 26.5682 6.72359 26.8762C6.49555 27.143 6.28823 27.4099 5.99798 27.8411C5.93579 27.9642 6.12237 27.8 6.08091 27.8616C5.85286 28.108 5.08579 29.155 4.75408 29.4424C4.85774 29.3397 4.87847 29.3603 4.85774 29.4013L4.65042 29.5861C4.44311 29.8325 4.42237 29.8735 4.46383 29.853C4.13213 30.2225 4.17359 30.1404 4.19432 30.0993C4.21506 30.0378 4.23579 30.0172 3.84188 30.4483C3.90408 30.3868 3.88335 30.4278 4.02847 30.2841L3.7175 30.5921L3.55164 30.7358C3.48945 30.7768 3.46871 30.7974 3.42725 30.8384C3.34432 30.9 3.28213 30.9616 3.1992 31.0232L3.13701 31.0642L3.11627 31.0848L3.15774 31.0848L3.30286 31.0848C3.53091 31.0848 3.75896 31.0848 3.98701 31.0848C4.25652 31.0848 4.52603 31.0848 4.79555 31.0848C5.10652 31.0232 3.86262 31.0642 4.21506 31.0232C5.7492 31.0232 7.38701 31.0848 8.87969 31.0848L8.61018 31.0848C8.8175 31.1669 9.70896 31.0437 10.476 31.0848C10.2894 31.0848 10.2273 31.0437 10.2894 31.0437C11.3053 31.0437 12.3626 31.0848 13.9175 31.1258L13.7309 31.1053C14.3321 31.0848 15.3065 31.1053 15.9492 31.1053C16.1358 31.1258 16.509 31.1258 16.2809 31.1669C18.2712 31.0642 20.0955 31.2901 21.8577 31.2285C21.6504 31.2285 21.3602 31.208 21.526 31.208L23.0394 31.249C22.9151 31.2901 22.8321 31.2695 22.5212 31.2901C22.7077 31.3106 23.1431 31.3517 23.5163 31.3517C22.8321 31.3106 23.5163 31.2901 23.8273 31.2901C23.7858 31.2901 23.8687 31.3106 23.848 31.3311C24.6358 31.2901 23.9724 31.4132 25.0504 31.3927L24.9882 31.3722C25.3821 31.3927 25.7553 31.4338 26.1907 31.4338C26.3773 31.3927 25.7553 31.3927 25.7346 31.3722C26.3358 31.3927 26.937 31.4748 27.4968 31.4543C27.2273 31.4338 26.8748 31.4132 26.6053 31.4132C27.2065 31.3722 27.2687 31.3927 27.7248 31.3927L27.6833 31.3927L28.7199 31.3927L28.4504 31.3927C29.2175 31.5159 30.0053 31.4543 31.0212 31.557C30.026 31.4543 30.8553 31.5159 30.7724 31.4543C31.0419 31.4543 31.4358 31.4543 31.3321 31.4338C31.809 31.4954 32.1407 31.4338 32.8248 31.5159C32.8663 31.4954 33.3431 31.5364 33.2394 31.4954C33.8614 31.5364 33.0943 31.5159 33.1358 31.5364C34.1102 31.6185 35.437 31.557 36.826 31.6801C38.0077 31.7623 38.2358 31.8238 39.2931 31.8854C39.3346 31.8854 39.376 31.8854 39.3968 31.8854C39.7077 31.8854 39.0651 31.8238 39.0651 31.8238C39.6663 31.8238 40.1431 31.8649 40.7029 31.906C40.5785 31.8854 40.7029 31.8854 40.8894 31.8649C41.3455 31.8854 41.2004 31.9265 41.8016 31.947C41.698 31.9265 41.5736 31.8854 41.3455 31.8649C41.8846 31.906 42.4236 31.947 42.9833 32.0086C43.1285 31.9881 42.6516 31.947 42.4443 31.9265C43.0663 31.9676 44.0821 32.0291 44.2687 32.0907L43.9577 32.0907C44.0407 32.0907 43.937 32.0497 43.8126 32.0497C43.2736 31.9881 43.0248 32.0291 43.0041 32.0291L43.398 32.0497C42.9833 32.1113 41.7809 31.947 40.9724 31.9265L41.2419 31.9881C43.2736 32.1113 45.2638 32.2139 47.2333 32.3166ZM18.2712 5.81259C18.3748 5.81259 18.4785 5.81259 18.6236 5.81259C18.6443 5.79206 18.6236 5.79206 18.5407 5.79206C18.5614 5.79206 18.3748 5.81259 18.2712 5.81259ZM19.059 5.81259C19.1419 5.81259 19.2041 5.81259 19.2455 5.81259L19.059 5.81259ZM46.3212 6.83907C46.3833 6.77748 46.4455 6.71589 46.5077 6.6543C46.487 6.6543 46.4248 6.69536 46.3004 6.79801C46.3004 6.81854 46.3004 6.83907 46.3212 6.83907ZM49.4309 23.6119C49.4102 23.694 49.4102 23.3245 49.4102 23.0781L49.4102 23.7762C49.4102 23.8377 49.4309 23.7762 49.4309 23.6119ZM49.3894 24.7L49.3894 25.0901C49.3687 25.0079 49.3894 24.9053 49.3894 24.7ZM47.3992 32.2755C47.3992 32.296 47.4199 32.3166 47.4199 32.3371C47.4407 32.3371 47.4407 32.3371 47.4614 32.3371C47.4407 32.3166 47.4199 32.296 47.3992 32.2755ZM40.5163 31.947C40.3919 31.947 40.309 31.9675 40.3712 31.9881C40.6407 32.0086 40.9102 32.0086 41.1797 32.0291L40.5163 31.947ZM36.1833 31.7623L35.9553 31.7828C36.1833 31.7828 36.3907 31.8033 36.6187 31.8033C36.5773 31.8033 36.4529 31.7828 36.1833 31.7623ZM20.137 31.3311C20.0955 31.3106 19.9712 31.2901 19.598 31.2901C19.5773 31.2901 19.5565 31.3106 19.5773 31.3311C19.7638 31.3311 19.9504 31.3311 20.137 31.3311ZM37.3236 4.62186L37.2821 4.62186C37.3029 4.64239 37.3443 4.66291 37.3443 4.68344C37.3651 4.68344 37.4065 4.66292 37.448 4.66292L37.5516 4.70397L37.3236 4.70397C37.2821 4.74503 37.1785 4.76556 36.909 4.80662L36.4736 4.78609L36.3285 4.86821L36.6809 4.84768C36.4736 4.88874 36.3492 4.86821 36.2041 4.86821C36.1626 4.88874 36.1212 4.90927 36.0175 4.9298L35.6029 4.86821C35.5614 4.90927 35.7894 4.90927 35.5199 4.95033C35.3126 4.9298 35.7065 4.86821 35.3748 4.86821C35.1675 4.90927 35.2297 4.9298 34.9809 4.9298C34.9394 4.95033 35.0016 4.95033 35.1053 4.95033C34.898 4.95033 34.5455 4.99139 34.4212 4.95033C34.2138 5.01192 33.6955 4.99139 33.7163 5.07351C33.6541 5.05298 33.3431 5.05298 33.1358 5.07351C33.509 5.1351 32.3894 5.1351 32.4931 5.21722C32.2236 5.15563 31.5187 5.25828 31.0419 5.25828C31.0626 5.25828 31.1248 5.27881 31.1663 5.25828C30.8968 5.27881 30.8346 5.31987 30.648 5.3404C30.6065 5.27881 30.1919 5.29934 29.9638 5.27881C29.6321 5.36093 30.1712 5.3404 30.0675 5.40199C30.0882 5.36093 29.487 5.40199 29.6114 5.3404C29.3626 5.40199 29.4041 5.38146 29.2797 5.42252C29.2382 5.3404 29.0516 5.42252 28.8443 5.40199C28.4919 5.46358 28.7614 5.48411 28.3675 5.48411C28.1809 5.52517 28.5333 5.52517 28.5333 5.52517C28.1394 5.5457 28.3468 5.48411 28.2431 5.46358C27.7663 5.48411 28.0151 5.52517 27.8699 5.56623C27.559 5.56623 27.3309 5.52517 27.1029 5.5457C27.0821 5.56623 27.0407 5.56623 27.1029 5.56623C26.7919 5.5457 26.1492 5.62782 25.776 5.58676C25.7553 5.58676 25.7346 5.60729 25.7346 5.60729C25.7968 5.56623 25.7968 5.5457 25.7968 5.52517C25.6102 5.52517 25.4651 5.50464 25.3821 5.5457C25.4858 5.5457 25.5065 5.5457 25.548 5.56623L25.3614 5.56623C25.1955 5.62782 25.6309 5.56623 25.6309 5.60729C25.2577 5.60729 24.8224 5.58676 24.5321 5.60729C24.4699 5.66888 25.1955 5.58676 24.8224 5.64835L25.2577 5.60729C24.926 5.70994 25.5272 5.58676 25.2163 5.68941C24.6358 5.73047 24.5736 5.68941 23.9931 5.73047C23.8687 5.70994 24.0346 5.68941 23.9102 5.66888C23.0809 5.64835 23.2675 5.83311 22.6663 5.77153C22.5004 5.751 22.4382 5.66888 22.0236 5.73047L22.1687 5.79206C21.609 5.81259 21.837 5.70994 21.2565 5.77153C21.3602 5.79206 21.6919 5.77153 21.609 5.79206C21.2358 5.85364 21.3394 5.77153 21.0492 5.77153L20.987 5.83312C20.3858 5.83312 19.7224 5.81259 19.0797 5.81259C19.1212 5.83312 19.2248 5.83312 19.0797 5.85365C18.2504 5.85365 17.2968 5.8947 16.4882 5.91523L16.1772 5.87418C16.1151 5.87418 16.0529 5.89471 16.1151 5.89471C15.8041 5.91523 16.0943 5.87418 15.9492 5.85365C15.7626 5.85365 15.7212 5.87418 15.8248 5.89471C15.2651 5.85365 14.2492 5.81259 13.6687 5.85365L13.7724 5.87418C13.3163 5.89471 13.2541 5.77153 12.8394 5.81259L12.9224 5.81259C11.948 5.83312 10.8492 5.77153 10.1029 5.81259C9.95774 5.751 9.12847 5.81259 9.06627 5.73047C8.50652 5.751 8.67237 5.77153 7.86383 5.79206C7.65652 5.79206 7.55286 5.73047 7.28335 5.70994L7.28335 5.751L6.93091 5.68941L6.74432 5.73047L6.49554 5.70994C6.5992 5.70994 6.70286 5.68941 6.68212 5.68941C6.30896 5.64835 5.7492 5.68941 5.72847 5.70994L4.81627 5.62782C4.837 5.64835 4.91993 5.64835 5.02359 5.66888C4.69188 5.62782 5.00286 5.73047 4.58823 5.66888C4.65042 5.66888 4.56749 5.64835 4.54676 5.62782C4.31871 5.64835 3.82115 5.62782 3.44798 5.58676L3.51018 5.62782C3.40652 5.62782 3.30286 5.62782 3.1992 5.60729L3.137 5.60729L3.11627 5.60729C3.07481 5.60729 3.03334 5.60729 3.01262 5.58676C3.03334 5.60729 3.07481 5.62782 3.11627 5.66888C3.05408 5.64835 2.95042 5.64835 3.05408 5.73047C3.07481 5.73047 3.09554 5.70994 3.11627 5.70994C3.17847 5.77153 3.11628 5.73047 3.09554 5.73047L3.07481 5.73047L3.07481 5.751C3.09554 5.77153 3.11627 5.77153 3.137 5.81259C3.38578 5.9563 3.32359 5.87418 3.1992 5.77153L3.46871 5.97683C3.48944 5.97683 3.42725 5.91524 3.42725 5.89471C3.53091 5.99736 3.94554 6.18212 4.09066 6.32583L4.1114 6.32583C4.73335 6.73643 5.02359 6.94173 5.52115 7.29073C5.50042 7.33179 5.70774 7.45497 5.83213 7.59868C6.2053 7.84504 6.64066 8.09139 7.07603 8.41987C7.36628 8.66623 7.13823 8.52252 7.26262 8.62517C7.30408 8.60464 7.73944 8.93312 7.53213 8.74835C8.07115 9.11788 8.21627 9.24106 8.85896 9.75431C8.77603 9.71325 8.6931 9.65166 8.73457 9.71325C8.85896 9.8159 9.02481 9.89802 9.00408 9.87749L9.06627 9.79537C9.77115 10.3907 10.8492 10.9656 11.3882 11.4788L11.3675 11.4583L11.948 11.951C12.2382 12.1563 11.8029 11.8073 12.0102 11.9305C12.6114 12.4848 13.0468 12.7311 13.5443 13.1828C14.0212 13.4291 14.9748 14.353 15.576 14.7636L15.5346 14.7636C15.659 14.9073 15.7212 14.8868 15.8248 14.9689C15.8041 14.9689 15.659 14.8662 15.7419 14.9483C16.9029 15.9748 18.1882 17.0013 19.3907 18.0689C19.826 18.4589 19.5358 18.3974 20.1163 18.849L19.9919 18.6642C20.4065 19.0954 20.8212 19.506 21.2565 19.9166C21.4638 20.1219 21.6919 20.3272 21.8992 20.5325C22.1065 20.7378 22.3138 20.943 22.5004 21.1689C22.459 21.1073 22.4797 21.1073 22.3968 21.0252C22.6041 21.1689 23.0187 21.6821 22.998 21.7027C23.1224 21.8258 23.0394 21.7232 23.1224 21.7848C23.309 21.949 23.4955 22.257 23.6199 22.3185C23.6199 22.3185 23.6199 22.3185 23.5992 22.298C23.7443 22.4417 24.0553 22.7086 23.9309 22.647C24.2626 22.8934 24.5529 23.1192 24.8638 23.1603C24.9468 23.2013 25.1126 23.2219 25.2785 23.2013C25.4236 23.1808 25.548 23.1397 25.5894 23.1603C25.5687 23.1397 25.7346 23.0781 25.9212 22.9755C26.1077 22.8934 26.3358 22.7702 26.4602 22.7086C26.3773 22.7291 26.6468 22.5649 26.5431 22.606C26.7919 22.4417 27.0407 22.298 27.0199 22.3596C27.4346 21.9695 28.0151 21.7642 28.2016 21.4974C28.9894 21.0046 29.6943 20.553 30.3785 20.0808C30.3163 20.0397 29.6321 20.6146 29.6114 20.5325C30.2748 20.1013 30.6687 19.8755 31.2907 19.4033C31.4565 19.2801 31.187 19.4444 31.1248 19.4854C31.7675 19.0543 32.348 18.5821 32.9285 18.1921C32.9285 18.1921 32.8663 18.2331 32.8041 18.2742C32.9077 18.1921 33.0529 18.0689 33.0529 18.1099L32.9492 18.1921C32.8041 18.3563 33.4468 17.9457 33.4882 17.9457C33.2394 18.0073 34.0272 17.5146 33.6541 17.6378C33.737 17.5967 33.8199 17.5351 33.8199 17.5556C33.9236 17.4735 33.9443 17.4325 33.8199 17.494C34.2138 17.2066 34.1102 17.3503 34.4626 17.0629C34.4419 17.0424 34.3797 17.104 34.3382 17.1245C34.5455 17.0013 34.7321 16.8987 35.0224 16.6523C35.0016 16.6523 35.0224 16.6318 34.9394 16.6934C35.4577 16.3033 35.8516 16.0775 36.3907 15.6053C36.1833 15.6874 36.5565 15.4411 36.5565 15.3589L36.8675 15.1536L36.7638 15.2768C37.0333 15.0715 37.2821 14.9073 37.4894 14.702L37.2821 14.8457L37.7797 14.4556L37.5102 14.702C37.8004 14.5172 37.5309 14.7841 37.8626 14.4762C37.7797 14.5377 38.1114 14.2709 38.2358 14.1272C38.3809 14.045 38.526 13.9424 38.6919 13.7781C38.7333 13.7166 38.609 13.7576 38.6297 13.7166C38.7955 13.655 39.2309 13.2238 39.4382 13.1212C39.376 13.1623 39.3553 13.1417 39.376 13.1212L39.5004 13.0596C39.6041 12.957 39.6248 12.9364 39.5833 12.9364C39.9358 12.6285 39.5212 13.0801 39.9151 12.7106C39.8736 12.7311 39.8943 12.7106 39.8114 12.7722C40.226 12.4026 40.6407 12.0947 41.0138 11.7252C41.0968 11.5815 40.6614 12.0126 40.7651 11.8689C41.3248 11.3967 41.9468 10.904 42.4651 10.4113L42.3614 10.5139C42.4858 10.5139 42.7346 10.1238 43.0248 9.91854C42.9626 9.98013 42.9004 9.9596 42.9419 9.9596C43.2943 9.6106 43.6882 9.30265 44.248 8.80993L44.1651 8.85099C44.3516 8.6457 44.7041 8.31722 44.9321 8.09139C45.0151 8.05033 45.1394 7.90662 45.0772 8.00927C45.6785 7.24967 46.4455 6.77748 46.9638 6.1C46.9016 6.16159 46.7772 6.26424 46.8394 6.20265L47.3577 5.70993C47.337 5.77152 47.3163 5.79205 47.2126 5.91523C47.2955 5.87417 47.4407 5.73046 47.5858 5.60728C47.337 5.81258 47.5443 5.56623 47.6272 5.44305C47.6272 5.46358 47.6687 5.44305 47.6687 5.46358C47.7309 5.38146 47.7516 5.36093 47.7724 5.3404C47.7931 5.31987 47.8138 5.31987 47.8346 5.31987C47.8553 5.31987 47.876 5.29934 47.9175 5.27881C47.9382 5.25828 47.959 5.23775 47.9797 5.21722C48.0004 5.19669 48.0004 5.19669 48.0212 5.17616L48.0626 5.1351C48.0626 5.1351 48.0626 5.1351 48.0626 5.11457L48.0419 5.11457C48.0419 5.11457 48.0419 5.11457 48.0212 5.1351C47.8968 5.09404 47.7516 5.05298 47.5236 5.01192C47.4407 5.03245 47.7309 5.07351 47.7102 5.09404C47.6894 5.09404 47.6687 5.07351 47.6272 5.07351L47.5236 5.05298C47.4614 5.03245 47.3785 5.01192 47.3163 4.99139C47.1712 4.95033 47.0468 4.9298 46.9016 4.9298C47.026 4.97086 47.1919 4.99139 47.3163 5.03245C47.026 5.03245 46.9846 5.01192 46.7772 4.99139L46.7358 4.99139L46.487 4.97086C46.5285 4.97086 46.5699 4.97086 46.6114 4.97086L46.2797 4.9298L46.4041 4.9298C46.0516 4.76556 45.6577 4.80662 45.1809 4.68344C45.6577 4.78609 45.2638 4.7245 45.2846 4.78609C45.1602 4.78609 44.9736 4.78609 45.0151 4.80662C44.787 4.74503 44.6212 4.80662 44.2894 4.7245C44.2687 4.74503 44.0407 4.70397 44.0821 4.74503C43.7712 4.70397 44.1651 4.7245 44.1236 4.70397C43.6675 4.62185 43.0248 4.70397 42.3407 4.62186C41.8016 4.5808 41.6565 4.53974 41.2212 4.51921L41.076 4.51921C41.0968 4.43709 41.3663 4.45762 41.3663 4.45762C41.076 4.47815 40.848 4.47815 40.5785 4.47815C40.6407 4.49868 40.5785 4.49868 40.4955 4.51921C40.2675 4.51921 40.3504 4.47815 40.0602 4.49868C40.1016 4.51921 40.1846 4.53974 40.2882 4.56027C40.0187 4.56027 39.7699 4.53974 39.5004 4.53974C39.4382 4.56027 39.6663 4.5808 39.7699 4.5808C39.459 4.5808 38.9821 4.60133 38.8785 4.56027L39.0236 4.53974C38.9821 4.56027 39.0443 4.5808 39.1065 4.5808C39.3553 4.60133 39.459 4.53974 39.4797 4.53974L39.2931 4.53974C39.4797 4.43709 40.0809 4.51921 40.4541 4.49868L40.3297 4.45762C39.2931 4.47815 38.298 4.53974 37.3236 4.62186ZM40.6614 4.47815C40.7029 4.45762 40.7443 4.45762 40.7443 4.43709C40.6199 4.43709 40.4955 4.43709 40.3504 4.45762L40.6614 4.47815ZM42.776 4.45762L42.8797 4.43709L42.5687 4.43709C42.5894 4.43709 42.6309 4.43709 42.776 4.45762ZM0.193105 12.8132L0.234567 12.9775C0.234567 12.8132 0.234567 12.6695 0.234567 12.5053C0.213834 12.5258 0.213837 12.608 0.193105 12.8132ZM0.213833 9.67219C0.213833 9.75431 0.234566 9.8159 0.255295 9.77484C0.255295 9.59007 0.255295 9.38477 0.255295 9.2L0.213833 9.67219ZM27.476 4.00596C27.3516 4.00596 27.248 4.02649 27.1858 4.02649C27.248 4.02649 27.3309 4.02649 27.476 4.00596ZM28.1602 3.98543C28.1187 4.00596 28.1602 4.00596 28.2846 4.00596C28.2224 4.00596 28.4919 3.9649 28.6785 3.94437C28.5333 3.94437 28.3468 3.9649 28.1602 3.98543Z" fill="#0079A2"/>
<path d="M48.5186 3.63625C48.4978 3.63625 48.4564 3.61572 48.4356 3.61572C48.4564 3.61572 48.4978 3.61572 48.5186 3.63625Z" fill="#0079A2"/>
<path d="M45.2012 3.1228L45.2012 3.14333L45.0975 3.1228L45.2012 3.1228Z" fill="#0079A2"/>
<path d="M0.068364 21.7437C0.068364 21.7232 0.0683627 21.7027 0.047631 21.6616C0.0683627 21.6616 0.068364 21.6822 0.068364 21.7437Z" fill="#0079A2"/>
<path d="M0.0888718 18.9108C0.0888718 18.8082 0.0888705 18.685 0.0681388 18.5208L0.0888718 18.9108Z" fill="#0079A2"/>
<path d="M0.0898358 16.7548C0.0898358 16.7344 0.110356 16.7141 0.110356 16.7141L0.0898358 16.7548Z" fill="#0079A2"/>
<path d="M19.3284 32.7063C19.3491 32.7063 19.3906 32.7063 19.4113 32.7063C19.6187 32.7268 19.4735 32.7268 19.3284 32.7063Z" fill="#0079A2"/>
<path d="M8.98275 32.5012C9.08641 32.5012 9.2108 32.5218 9.31446 32.5218C9.12787 32.5218 8.98275 32.5218 8.98275 32.5012Z" fill="#0079A2"/>
<path d="M0.151147 7.10622C0.151147 7.0241 0.151148 6.92145 0.17188 6.85986L0.151147 7.10622Z" fill="#0079A2"/>
<path d="M0.110341 10.2465C0.110341 10.2261 0.110342 10.2261 0.130864 10.2058L0.110341 10.2465Z" fill="#0079A2"/>
<path d="M0.130409 11.0885C0.130409 10.8832 0.109676 10.5753 0.109676 10.2674L0.130409 10.2468C0.0889453 10.3905 0.151141 10.9038 0.130409 11.0885Z" fill="#0079A2"/>
<path d="M4.17363 32.5628L4.02851 32.5217L4.46387 32.5423L4.17363 32.5628Z" fill="#0079A2"/>
</svg>
