<svg width="32" height="32" viewBox="0 0 32 32" fill="none" xmlns="http://www.w3.org/2000/svg">
<path d="M17.6512 22.27H13.7612C12.9712 22.27 12.3212 22.91 12.3312 23.7V27.59C12.3312 28.38 12.9712 29.02 13.7612 29.02H14.0093C14.3418 29.6109 14.9749 30.01 15.7012 30.01C16.4275 30.01 17.0605 29.6109 17.393 29.02H17.6512C18.4412 29.02 19.0812 28.38 19.0812 27.59V23.7C19.0812 22.91 18.4412 22.27 17.6512 22.27Z" fill="#9B9B9B"/>
<path d="M18.1611 23.13C18.4011 23.13 18.5911 22.95 18.6111 22.72C18.6811 21.86 19.0511 19.77 21.0711 17.53C22.9611 16.04 24.2111 13.78 24.3611 11.22C24.3811 10.98 24.3911 10.82 24.3911 10.72V10.71V10.7C24.3911 10.65 24.3911 10.62 24.3911 10.62C24.3311 5.84 20.4611 2 15.6911 2C10.9211 2 7.05111 5.84 7.00111 10.6C7.00111 10.6 6.99111 10.84 7.03111 11.24C7.19111 13.78 8.43111 16.03 10.3211 17.52C12.3411 19.77 12.7411 21.86 12.8111 22.72C12.8311 22.95 13.0211 23.13 13.2611 23.13H18.1611Z" fill="#FCD53F"/>
<path d="M15.7012 10.7C17.3212 10.7 18.6412 12.01 18.6612 13.63V13.71C18.6612 13.74 18.6612 13.78 18.6512 13.84C18.6012 14.68 18.1912 15.47 17.5312 15.99L17.4612 16.04L17.4012 16.1C16.3012 17.32 16.0712 20.42 16.0312 22.12H15.3812C15.3312 20.42 15.0912 17.32 13.9912 16.1L13.9312 16.04L13.8612 15.99C13.2012 15.47 12.7912 14.69 12.7412 13.82C12.7412 13.78 12.7312 13.75 12.7312 13.73V13.64C12.7612 12.02 14.0912 10.7 15.7012 10.7ZM15.7012 9.69995C13.5312 9.69995 11.7612 11.45 11.7412 13.62C11.7412 13.62 11.7412 13.73 11.7512 13.91C11.8212 15.07 12.3912 16.09 13.2512 16.77C14.4512 18.11 14.3912 23.13 14.3912 23.13H17.0312C17.0312 23.13 16.9512 18.11 18.1612 16.78C19.0212 16.1 19.5912 15.07 19.6612 13.9C19.6712 13.79 19.6712 13.72 19.6712 13.67C19.6712 13.65 19.6712 13.63 19.6712 13.63C19.6412 11.45 17.8812 9.69995 15.7012 9.69995Z" fill="#FFB02E"/>
<path d="M19.1671 25.0524C19.4391 25.0048 19.621 24.7457 19.5734 24.4737C19.5258 24.2017 19.2667 24.0198 18.9947 24.0674L12.2547 25.2474C11.9827 25.295 11.8008 25.5541 11.8484 25.8261C11.896 26.0981 12.1551 26.28 12.4271 26.2324L19.1671 25.0524ZM19.1175 27.2024C19.3895 27.1545 19.5712 26.8952 19.5233 26.6233C19.4755 26.3513 19.2162 26.1696 18.9442 26.2175L12.2942 27.3875C12.0223 27.4353 11.8406 27.6946 11.8884 27.9666C11.9363 28.2385 12.1956 28.4202 12.4675 28.3724L19.1175 27.2024Z" fill="#D3D3D3"/>
<path d="M13.7909 5.43997C12.6809 7.35997 13.2409 9.75997 15.0409 10.79C16.8409 11.82 19.1909 11.11 20.3009 9.18997C21.4109 7.26997 20.8509 4.86997 19.0509 3.83997C17.2509 2.80997 14.9009 3.51997 13.7909 5.43997Z" fill="#FFF478"/>
</svg>
