<svg width="30" height="24" viewBox="0 0 30 24" fill="none" xmlns="http://www.w3.org/2000/svg">
<path d="M2.91634 2.91671L11.8233 9.64293L11.8263 9.64539C12.8153 10.3707 13.3101 10.7335 13.852 10.8737C14.331 10.9976 14.8346 10.9976 15.3136 10.8737C15.856 10.7334 16.3523 10.3695 17.343 9.64293C17.343 9.64293 23.056 5.2587 26.2497 2.91671M1.45801 17.2087V6.12533C1.45801 4.49184 1.45801 3.67449 1.77591 3.05058C2.05554 2.50177 2.50141 2.0559 3.05021 1.77627C3.67412 1.45837 4.49147 1.45837 6.12496 1.45837H23.0416C24.6751 1.45837 25.4907 1.45837 26.1146 1.77627C26.6634 2.0559 27.1108 2.50177 27.3904 3.05058C27.708 3.67388 27.708 4.49024 27.708 6.12053V17.2136C27.708 18.8439 27.708 19.6591 27.3904 20.2824C27.1108 20.8312 26.6634 21.2778 26.1146 21.5575C25.4913 21.875 24.6761 21.875 23.0458 21.875H6.12017C4.48987 21.875 3.67351 21.875 3.05021 21.5575C2.50141 21.2778 2.05554 20.8312 1.77591 20.2824C1.45801 19.6585 1.45801 18.8421 1.45801 17.2087Z" stroke="#392A13" stroke-opacity="0.79" stroke-width="2.91667" stroke-linecap="round" stroke-linejoin="round"/>
</svg>
