<svg width="115" height="71" viewBox="0 0 115 71" fill="none" xmlns="http://www.w3.org/2000/svg">
<g clip-path="url(#clip0_766_45832)">
<path d="M102.262 66.1003C102.958 66.1467 103.515 66.1467 103.376 66.1003C103.608 66.1467 104.49 66.1467 104.861 66.2395C103.933 66.2859 102.772 66.2395 101.566 66.1003C101.287 66.1003 101.566 66.1467 101.612 66.1931C100.776 66.1003 99.848 65.961 100.359 65.8682C101.148 65.961 101.38 65.961 102.262 66.1003Z" fill="#A6E1F5"></path>
<path d="M92.0494 65.4033C92.2815 65.4033 92.4672 65.4498 92.6528 65.4498C92.4672 65.4498 92.2815 65.4497 92.0494 65.4033Z" fill="#A6E1F5"></path>
<path d="M93.6279 55.377C93.7198 55.4229 93.7198 55.4229 93.6279 55.377Z" fill="#A6E1F5"></path>
<path d="M91.6777 65.4038C91.4921 65.4038 91.3064 65.4039 91.0743 65.3574C91.3528 65.3574 91.5385 65.4038 91.6777 65.4038Z" fill="#A6E1F5"></path>
<path d="M100.823 57.1416C101.009 57.2344 99.7089 55.9811 101.287 57.4665C101.055 57.3272 100.916 57.2344 100.823 57.1416Z" fill="#A6E1F5"></path>
<path d="M92.0492 65.4507C91.9563 65.4043 91.8635 65.4043 91.6778 65.4043C91.8171 65.4043 91.9563 65.4043 92.0492 65.4507C92.0956 65.4507 92.0956 65.4507 92.0492 65.4507Z" fill="#A6E1F5"></path>
<path d="M98.6411 18.1494C98.5019 18.2887 98.409 18.3815 98.3162 18.4279L98.6411 18.1494Z" fill="#A6E1F5"></path>
<path d="M3.71289 43.4477C3.66647 43.0764 3.66647 42.705 3.66647 42.3337C3.66647 42.2408 3.66647 42.148 3.71289 42.1016L3.71289 43.4477Z" fill="#A6E1F5"></path>
<path d="M93.7206 22.6041C93.767 22.5577 93.8598 22.5113 93.9062 22.4649C93.8598 22.5113 93.8134 22.5577 93.7206 22.6041Z" fill="#A6E1F5"></path>
<path d="M3.75964 34.4426C3.75964 34.3497 3.75964 34.2569 3.75964 34.1641C3.80606 34.2569 3.75964 34.3497 3.75964 34.4426Z" fill="#A6E1F5"></path>
<path d="M26.6914 38.5265C26.6914 38.4801 26.7378 38.4337 26.7378 38.3408C26.7378 38.3872 26.7378 38.4801 26.6914 38.5265Z" fill="#A6E1F5"></path>
<path d="M53.2894 64.1515C53.3358 64.1515 53.3822 64.1515 53.5679 64.1515C53.5679 64.1051 53.4286 64.1515 53.2894 64.1515Z" fill="#A6E1F5"></path>
<path d="M68.8397 64.5215C68.9326 64.5215 68.9326 64.5679 68.979 64.5679L68.8397 64.5215Z" fill="#A6E1F5"></path>
<path d="M18.3818 44.0977C18.3354 44.1905 18.289 44.2369 18.2426 44.2833C17.8248 44.7475 18.1033 44.4226 18.3818 44.0977Z" fill="#A6E1F5"></path>
<path d="M15.0396 54.17C15.2717 53.8915 15.4574 53.6594 15.6895 53.3809C15.3645 53.7986 15.086 54.2164 15.0396 54.17Z" fill="#A6E1F5"></path>
<path d="M15.6893 53.3348C15.9678 52.9635 16.2928 52.4993 16.5713 52.1279C16.2464 52.6386 15.9678 53.0099 15.6893 53.3348Z" fill="#A6E1F5"></path>
<path d="M98.8267 65.729C98.641 65.729 98.5017 65.729 98.4553 65.6826L98.8267 65.729Z" fill="#A6E1F5"></path>
<path d="M99.5688 65.8218L98.8261 65.7754C99.0582 65.7754 99.3832 65.7754 99.5688 65.8218Z" fill="#A6E1F5"></path>
<path d="M89.125 65.3106L89.0331 65.2647C89.079 65.2647 89.125 65.2647 89.125 65.3106Z" fill="#A6E1F5"></path>
<path d="M88.9399 65.2183L89.0327 65.2647C88.6149 65.1719 87.0367 65.2647 86.4332 65.1719C87.0831 65.1719 88.0579 65.1719 88.9399 65.2183Z" fill="#A6E1F5"></path>
<path d="M7.61253 63.6392L7.89105 63.5928L8.03031 63.5928L8.2624 63.5928L8.68018 63.6856L8.03031 63.6392L7.61253 63.6392Z" fill="#A6E1F5"></path>
<path d="M86.5253 3.80587C86.1076 3.71303 86.0147 3.75945 85.597 3.66661C85.272 3.66661 84.9935 3.75945 85.0863 3.75945C84.9471 3.75945 84.5757 3.80587 84.3901 3.75945C84.8078 3.62019 85.3649 3.57377 85.9683 3.62019C86.1076 3.57377 85.9683 3.57377 85.9219 3.52735C86.3397 3.62019 86.8039 3.71303 86.5253 3.80587Z" fill="#A6E1F5"></path>
<path d="M90.5176 3.66666L90.2391 3.66666C90.2855 3.62024 90.3783 3.62024 90.5176 3.66666C90.5176 3.62024 90.5176 3.62024 90.5176 3.66666Z" fill="#A6E1F5"></path>
<path d="M57.6991 5.98731C57.6062 6.08015 58.4882 6.03373 57.4205 6.08015C57.5598 6.03373 57.6526 6.03373 57.6991 5.98731Z" fill="#A6E1F5"></path>
<path d="M90.5179 3.57325C90.4715 3.61967 90.4715 3.61967 90.5179 3.57325Z" fill="#A6E1F5"></path>
<path d="M59.4165 44.4688C59.138 44.6544 58.8595 44.8401 58.6274 44.933C58.9059 44.7937 59.1844 44.6544 59.4165 44.4688Z" fill="#A6E1F5"></path>
<path d="M56.167 45.6763C56.0277 45.7227 55.8421 45.6763 55.7028 45.6763C55.6564 45.6763 55.6564 45.6299 55.61 45.6299C55.7956 45.6763 55.9813 45.6763 56.167 45.6763Z" fill="#A6E1F5"></path>
<path d="M106.811 5.42882C106.811 5.42882 106.857 5.38287 106.903 5.33692C106.903 5.33692 106.857 5.38287 106.811 5.42882Z" fill="#A6E1F5"></path>
<path d="M101.705 3.9444C101.659 3.89845 101.659 3.89845 101.659 3.89845L101.705 3.9444Z" fill="#A6E1F5"></path>
<path d="M73.5747 34.5352C73.5283 34.5816 73.4819 34.5816 73.4819 34.628C73.2034 34.8137 73.389 34.6744 73.5747 34.5352Z" fill="#A6E1F5"></path>
<path d="M85.6899 25.1123C85.5507 25.2052 85.4114 25.298 85.2722 25.3908C85.5043 25.2516 85.6435 25.1123 85.6899 25.1123Z" fill="#A6E1F5"></path>
<path d="M59.5098 44.4229C59.4638 44.4229 59.4638 44.4688 59.4179 44.4688L59.5098 44.4229Z" fill="#A6E1F5"></path>
<path d="M85.3184 25.3906C85.1327 25.5299 84.947 25.7156 84.7613 25.8548C84.947 25.6692 85.1327 25.5299 85.3184 25.3906Z" fill="#A6E1F5"></path>
<path d="M87.4536 3.80533L87.2679 3.80533C87.3608 3.75891 87.4072 3.75891 87.4536 3.80533Z" fill="#A6E1F5"></path>
<path d="M86.8967 3.7588L87.2681 3.7588C87.1288 3.80522 86.9896 3.80522 86.8967 3.7588Z" fill="#A6E1F5"></path>
<path d="M93.21 3.5731C92.885 3.5731 92.4208 3.66594 92.0031 3.66594L91.9566 3.61952C92.1887 3.66594 92.9314 3.52668 93.21 3.5731Z" fill="#A6E1F5"></path>
<path d="M91.2139 20.2842L90.7033 20.702L90.9818 20.377L91.2139 20.2842Z" fill="#A6E1F5"></path>
<path d="M0.556541 6.03348C0.602961 5.8478 0.556544 5.24435 0.602963 4.96583C0.695802 5.6157 0.695802 6.49767 0.602963 7.37964C0.649383 7.56532 0.649381 7.37964 0.695801 7.33322C0.649381 7.93667 0.51012 8.63296 0.417281 8.26161C0.51012 7.65815 0.510124 7.5189 0.602963 6.86902C0.649383 6.35841 0.602961 5.98706 0.556541 6.03348Z" fill="#A6E1F5"></path>
<path d="M0.371554 14.2503C0.371554 14.0647 0.371549 13.9254 0.417969 13.7861C0.371549 13.9718 0.371554 14.1111 0.371554 14.2503Z" fill="#A6E1F5"></path>
<path d="M39.5488 3.01563C39.3632 3.06205 39.2239 3.06205 39.1311 3.10847C39.2703 3.06205 37.9706 3.01563 39.5488 3.01563Z" fill="#A6E1F5"></path>
<path d="M0.418457 14.2497C0.372038 14.2961 0.372042 14.3889 0.372042 14.5282C0.372042 14.4353 0.372038 14.3425 0.418457 14.2497C0.418457 14.2032 0.418457 14.2032 0.418457 14.2497Z" fill="#A6E1F5"></path>
<path d="M103.932 0.695322C104.072 0.695322 104.164 0.741742 104.257 0.741742L103.932 0.695322Z" fill="#A6E1F5"></path>
<path d="M75.1062 68.2349C75.3848 68.1885 75.6169 68.1885 75.8954 68.1885C75.9418 68.1885 76.0346 68.1885 76.0811 68.2349L75.1062 68.2349Z" fill="#A6E1F5"></path>
<path d="M0.185621 58.6266L0.139206 58.9516C0.0927865 57.9768 0.139206 56.3985 0.139206 55.3309C0.185625 55.0059 0.185624 54.4025 0.232043 54.7738C-5.31748e-05 51.5245 0.417722 48.5536 0.232044 45.6756C0.232044 46.0006 0.185622 46.5112 0.185622 46.2327L0.232044 43.7724C0.324883 43.9581 0.278462 44.0974 0.324882 44.608C0.371301 44.2831 0.417719 43.5868 0.417719 42.9833C0.3713 44.0974 0.278464 42.9833 0.232044 42.4727C0.278464 42.5655 0.278462 42.3799 0.324882 42.4263C0.185624 41.1265 0.510558 42.1942 0.417719 40.4767L0.371304 40.5695C0.417724 39.9196 0.464142 39.3162 0.464142 38.6199C0.371303 38.3414 0.417721 39.3162 0.324882 39.3626C0.324882 38.3878 0.510558 37.413 0.41772 36.4846C0.41772 36.9024 0.371304 37.5058 0.371304 37.9236C0.278466 36.9488 0.278467 36.8095 0.278467 36.1132L0.278467 36.2061L0.232045 34.535L0.278467 34.9528C0.510564 33.6994 0.324887 32.3997 0.510565 30.7286C0.324887 32.3533 0.417722 31.0071 0.324883 31.0999C0.278463 30.6822 0.278465 30.0323 0.232046 30.218C0.324884 29.4288 0.185625 28.9182 0.324883 27.7577C0.278464 27.7113 0.324885 26.9222 0.232046 27.1079C0.278465 26.0867 0.278464 27.34 0.324883 27.2471C0.464141 25.6689 0.232048 23.5336 0.371306 21.2126C0.464145 19.4023 0.556984 18.9381 0.603403 17.4991C0.603403 17.3134 0.603403 17.1277 0.603403 16.942C0.556984 16.6635 0.510566 17.5919 0.510566 17.5919C0.464146 16.6171 0.464146 15.828 0.510566 14.8996C0.464147 15.0853 0.464141 14.8996 0.417722 14.6211C0.417722 13.8784 0.556985 14.1105 0.510566 13.1356C0.464147 13.3213 0.417726 13.507 0.371306 13.8784C0.417726 12.9964 0.464147 12.1144 0.510566 11.186C0.464147 10.9539 0.417726 11.7431 0.371307 12.068C0.417726 11.0468 0.464143 9.37567 0.556982 9.09716L0.556982 9.60777C0.556982 9.46851 0.464144 9.65419 0.464144 9.83987C0.371305 10.7218 0.464147 11.0932 0.510566 11.186L0.556981 10.5362C0.742659 11.186 0.510566 13.1821 0.510566 14.4818L0.649819 14.0176C0.696238 10.6754 0.696244 7.33322 0.742664 3.99103C0.742664 3.94461 0.742664 3.89819 0.742664 3.85177C0.696244 3.89819 0.603401 4.03744 0.556982 4.03744L0.556982 4.4088L0.417722 4.78015L0.464145 3.89819C0.417725 3.85177 0.417722 3.71251 0.417722 3.48041C0.464142 3.2019 0.603403 2.7377 1.16044 2.36635C1.43895 2.22709 1.76389 2.13425 2.08882 2.18067L2.83154 2.27351L3.29573 2.22709L2.0424 2.13425C2.78511 2.08783 3.20289 2.18067 3.66708 2.27351C3.80634 2.22709 3.99202 2.22709 4.27053 2.22709L5.66311 2.45919C5.84879 2.41277 5.01324 2.31993 5.98805 2.31993C6.63792 2.41277 5.33818 2.41277 6.45224 2.55202C7.14853 2.50561 6.96286 2.45919 7.75199 2.55203C7.89124 2.50561 7.70557 2.45919 7.38063 2.45919C8.12334 2.55203 9.28383 2.59844 9.65518 2.69128C10.3979 2.64486 12.1154 2.83054 12.0226 2.69128C12.2547 2.7377 13.2759 2.87696 13.9722 2.87696C12.7653 2.64486 16.4788 2.9698 16.1539 2.7377C17.0359 2.92338 19.4033 2.92338 20.9815 3.06264C20.8887 3.06264 20.703 3.01622 20.5637 3.01622C21.4457 3.01622 21.7242 2.9698 22.2813 2.9698C22.3741 3.10906 23.8131 3.15548 24.5558 3.24832C25.6699 3.15548 23.9059 3.06264 24.2309 2.9698C24.1844 3.06264 26.1341 3.10906 25.7627 3.2019C26.5983 3.15548 26.5054 3.15548 26.9232 3.06264C27.0625 3.24832 27.7123 3.10906 28.4086 3.2019C29.6155 3.10906 28.7335 3.06264 30.0797 3.10906C30.7296 3.06264 29.5227 2.9698 29.5227 2.9698C30.8688 2.9698 30.1726 3.10906 30.4511 3.15548C32.0757 3.2019 31.1938 3.06264 31.7508 3.01622C32.772 3.06264 33.5612 3.15548 34.3039 3.15548C34.3503 3.15548 34.4896 3.10906 34.3503 3.10906C35.4179 3.2019 37.5532 3.10906 38.8066 3.2019C38.8994 3.2019 38.9458 3.15548 38.9922 3.15548C38.8066 3.2019 38.7601 3.29474 38.8066 3.34116C39.41 3.34116 39.9206 3.38758 40.1527 3.34116C39.7814 3.34116 39.7349 3.29474 39.5493 3.29474L40.1991 3.34116C40.7562 3.2019 39.3172 3.29474 39.3172 3.2019C40.5705 3.24832 42.0095 3.29474 42.9843 3.24832C43.17 3.10906 40.7562 3.24832 42.0095 3.10906L40.5241 3.2019C41.8238 2.92338 39.7814 3.15548 40.8026 2.92338C42.7522 2.83054 42.9843 2.9698 44.9339 2.87696C45.3517 2.92338 44.7947 2.9698 45.2124 3.01622C47.9976 3.06264 47.3941 2.64487 49.4366 2.73771C49.9472 2.78413 50.1793 2.9698 51.6183 2.83054L51.1077 2.73771C53.0109 2.64487 52.1753 2.87696 54.1714 2.73771C53.8 2.69129 52.686 2.73771 52.9645 2.73771C54.2178 2.59845 53.8929 2.78413 54.8677 2.73771L55.0533 2.59845C57.0494 2.50561 59.2775 2.50561 61.5056 2.36635C61.3664 2.31993 60.995 2.31993 61.5056 2.27351C64.2908 2.13426 67.4937 1.85574 70.1861 1.57722L71.2073 1.57722C71.4394 1.57722 71.6715 1.48438 71.393 1.48438C72.4606 1.34513 71.4394 1.5308 71.95 1.5308C72.6463 1.48438 72.832 1.39155 72.4606 1.39155C74.3174 1.34513 77.7524 1.15945 79.702 0.880933L79.3307 0.880933C80.8625 0.741675 81.0482 0.973772 82.4872 0.741675L82.2087 0.741675C85.5045 0.41674 89.1716 0.323901 91.7247 0.0918046C92.1888 0.231063 95.0204 -0.00103388 95.2525 0.231063C97.1093 0.184644 96.5987 0.138224 99.291 0.231063C99.9873 0.277483 100.359 0.416741 101.241 0.555999L101.333 0.463161C101.751 0.555999 102.123 0.602419 102.54 0.695258L103.144 0.602419C103.422 0.648838 103.701 0.695258 103.979 0.741677C103.654 0.695258 103.283 0.695258 103.329 0.741677C103.979 0.834516 104.768 0.927355 105.372 1.02019C105.975 1.06661 106.44 1.06661 106.486 1.06661C107.507 1.29871 108.482 1.53081 109.457 1.7629C109.41 1.71648 109.132 1.62365 108.807 1.53081C109.318 1.67007 109.41 1.67007 109.457 1.67007C109.503 1.67007 109.503 1.67007 109.503 1.62365C109.503 1.62365 109.503 1.62365 109.55 1.62365C109.55 1.62365 109.55 1.62365 109.596 1.62365C109.643 1.57723 109.735 1.53081 109.828 1.43797C109.596 1.57723 109.967 1.43797 110.014 1.43797C110.478 1.25229 111.314 1.15945 112.01 1.7629C112.381 2.04142 112.613 2.50561 112.66 2.92339C112.66 3.34116 112.706 3.61968 112.706 3.94462L112.753 3.71252C112.938 5.98707 113.031 8.49372 113.217 11.0004C113.124 10.072 113.031 10.3041 113.031 11.0468L113.17 11.3253C113.124 11.7895 113.078 10.5362 113.031 11.5574C113.078 12.4858 113.217 12.2073 113.217 11.6502L113.263 12.8107C113.31 12.8571 113.31 12.625 113.356 12.5322C113.31 12.9964 113.588 14.5282 113.495 15.2245L113.542 15.2709C113.635 17.8704 113.635 19.0309 113.727 21.0734C113.635 21.1198 113.681 21.9089 113.635 22.5588C113.727 24.0906 113.867 25.7617 113.913 27.6185C113.913 28.9182 113.82 27.9899 113.82 28.5933C113.913 28.6861 113.96 30.4965 114.006 29.5681L114.006 35.1384C113.96 34.8599 113.96 34.4886 113.913 34.6742C113.913 35.1849 113.96 35.8347 114.006 35.7419L114.006 35.6026C113.913 38.7127 114.331 42.7976 114.145 45.3043L114.145 45.165L114.052 47.7645C114.052 48.9714 114.145 47.0682 114.192 47.9502C114.006 50.7354 114.145 52.36 114.006 54.6346C114.238 56.3985 113.82 60.9476 113.913 63.315L113.867 63.1758C113.774 63.7792 113.867 63.9185 113.867 64.3827C113.82 64.3362 113.82 63.6864 113.774 64.1041C113.681 65.4039 113.635 66.75 113.588 68.0962C113.588 68.514 113.449 68.9318 113.17 69.2567C112.892 69.5816 112.521 69.8601 112.056 69.9066L111.731 69.9066L111.499 69.9066L110.989 69.9066L109.967 69.8601C107.229 69.7673 104.536 69.628 101.844 69.5352C99.8945 69.4424 100.73 69.1639 98.2698 69.1639L98.9661 69.3031C95.0204 68.9782 90.8891 68.8853 86.9899 68.6068C87.222 68.6532 87.222 68.6997 87.5933 68.6997C86.7578 68.7461 84.5761 68.5604 84.5761 68.514C83.9726 68.514 84.4368 68.5604 84.0654 68.6068C83.2299 68.6068 82.023 68.4211 81.5588 68.4676C81.5124 68.4676 81.6052 68.4676 81.7445 68.514C81.0482 68.4676 79.4699 68.4211 79.9341 68.3747C78.4951 68.3747 77.149 68.2355 75.9885 68.2355C75.2458 68.0962 73.4818 68.189 73.2497 68.0498C73.3426 68.2355 70.6967 68.0962 69.7683 68.0034C70.0932 68.0498 68.9791 68.0498 69.3041 68.0962C68.2364 68.0498 67.3081 68.0034 67.4937 67.9105C65.5441 68.0498 63.5945 67.632 62.5269 67.8641C59.4168 67.6784 56.5388 67.5392 53.7072 67.4463C53.8 67.5856 56.8173 67.5392 56.678 67.6784C54.0321 67.5392 52.5003 67.3999 49.8544 67.3535C49.1581 67.3535 50.2257 67.4463 50.4578 67.4463C47.8119 67.3071 45.3053 67.3535 42.9379 67.2142C42.9379 67.2142 43.2164 67.2606 43.4485 67.2606C42.9843 67.2606 42.3808 67.2607 42.4273 67.2142L42.8915 67.2606C43.6342 67.1678 41.0347 67.0286 40.9418 66.9821C41.731 67.2142 38.6209 66.9821 39.8742 67.2606C39.5493 67.2606 39.1779 67.2142 39.2707 67.1678C38.8066 67.1678 38.6673 67.2142 39.1315 67.2606C37.4604 67.2142 38.0638 67.1214 36.532 67.1214C36.532 67.1678 36.8569 67.1678 36.9962 67.2142C36.2535 67.1214 35.4644 67.075 34.1646 67.075C34.211 67.075 34.1182 67.1214 34.3503 67.1214C32.215 67.075 30.6832 66.8893 28.3158 66.9357C29.0121 67.075 27.4802 66.9821 27.3874 67.1214L26.0876 67.075L26.5983 67.0286C25.4842 67.0286 24.463 66.9357 23.4882 66.9357L24.3237 66.9821L22.1884 66.9357L23.3953 66.8893C22.2348 66.7965 23.5346 66.7036 22.0027 66.75C22.3277 66.75 20.8887 66.75 20.2852 66.8429C19.7282 66.7965 19.1247 66.75 18.2892 66.7965C18.0571 66.8429 18.4749 66.9357 18.3356 66.9821C17.7786 66.8893 15.6897 66.9357 14.9934 66.8429C15.2255 66.8893 15.2255 66.9357 15.1791 66.9357L14.7149 66.8429C14.2043 66.8893 14.1114 66.8893 14.2043 66.9357C12.626 66.9357 14.7149 66.75 12.8117 66.8429C12.951 66.8429 12.9045 66.8429 13.183 66.8893C11.2799 66.9357 9.51592 66.8429 7.7984 66.8893C7.28779 67.0286 9.33024 66.9357 8.72679 67.0285C7.47347 67.0285 6.17373 66.9821 4.9204 66.9821C4.27053 66.9821 3.62066 66.9821 3.01721 66.9357L2.08882 66.9357L1.85672 66.9357L1.5782 66.9357C1.39252 66.8893 1.25327 66.8429 1.11401 66.75C1.25327 66.8429 1.43894 66.8893 1.5782 66.8893C1.43894 66.7965 0.928332 66.6572 0.556977 66.1466C0.371299 65.9145 0.278465 65.5431 0.278465 65.2182C0.278465 64.8933 0.278465 64.5683 0.278465 64.2898C0.278465 64.5683 0.18562 64.6612 0.18562 64.6147C-5.69654e-05 62.8508 0.0927819 61.1333 0.185621 58.6266ZM0.324881 49.2035C0.324881 49.2499 0.371299 49.2499 0.417719 49.2499C0.417719 48.9714 0.417719 48.6465 0.417719 48.368C0.371299 48.4144 0.324881 48.6465 0.324881 49.2035ZM105.836 66.3787C105.743 66.3323 105.65 66.2394 105.558 66.193L105.233 66.1002L105.465 66.1002C105.233 65.9145 104.954 65.6824 104.583 65.3575L103.19 63.9185L102.68 63.5471L103.933 64.7076C103.19 64.1041 102.772 63.6399 102.308 63.1758C102.169 63.0829 101.937 62.9437 101.612 62.6651L100.266 61.2261C100.034 61.1333 100.823 61.9224 99.848 61.0405C99.2446 60.3442 100.591 61.5511 99.5231 60.4834C98.7804 59.88 98.9197 60.1121 98.1769 59.3229C98.0377 59.2301 98.1769 59.4158 98.5019 59.7407C97.8056 59.0444 96.5987 57.9304 96.2737 57.5126C95.4846 56.9091 93.8135 55.1916 93.8135 55.3773C93.6278 55.1452 92.6066 54.0776 91.9567 53.4277C93.0244 54.7274 89.4501 51.0603 89.6358 51.5245C88.8466 50.5497 86.4328 48.368 84.9474 46.7433C85.0403 46.8361 85.1795 47.0218 85.3188 47.1611C84.8546 46.7433 84.5761 46.4648 84.2975 46.2327C84.019 45.9542 83.6941 45.6292 83.6477 45.0722C83.6941 45.0258 83.6941 44.7937 83.7869 44.5152C83.8798 44.2366 84.019 43.8653 84.2975 43.6332C84.5761 43.4011 84.9938 43.169 85.3652 43.169C85.783 43.1226 86.1543 43.3083 86.3864 43.4939C86.4793 43.5403 86.5721 43.5868 86.6185 43.6332C86.6649 43.6796 86.7114 43.726 86.7578 43.726C86.7578 43.8189 86.8042 43.8189 86.8042 43.8189C86.8042 43.7724 86.7578 43.6796 86.5721 43.5404C86.4793 43.4475 86.3864 43.3547 86.2936 43.3083C86.2007 43.2618 86.1079 43.169 86.0151 43.1226C85.8294 43.0762 85.7365 43.0297 85.9222 43.0297C85.9222 43.0297 85.9686 43.0762 86.0151 43.0762C86.1079 43.1226 86.2007 43.169 86.34 43.2618C86.4328 43.3547 86.6185 43.4939 86.7114 43.5868C86.8042 43.6796 86.897 43.8189 87.0363 43.9117C87.4541 44.3295 87.8254 44.7473 87.5933 44.608C88.4753 45.3507 88.336 45.2579 88.8466 45.6292C88.8931 45.9077 89.5894 46.4184 90.2392 47.1611C91.4926 48.2751 90.657 47.3467 91.9567 48.6465C92.6066 49.2035 91.4926 48.043 91.4926 48.043C92.8387 49.3428 92.0496 48.7393 92.2817 49.0643C93.8599 50.6425 93.1172 49.7141 93.6743 50.1783C94.6491 51.1531 95.3454 51.9887 96.1345 52.685C96.2273 52.7314 96.3666 52.8706 96.1809 52.685C97.2021 53.799 99.3838 55.7022 100.544 56.9556C100.637 57.0484 100.684 57.0484 100.73 57.0948C100.498 56.9556 100.405 56.9556 100.405 57.0484C101.009 57.6054 101.473 58.1625 101.798 58.3017C101.426 57.9304 101.426 57.8839 101.241 57.6983L101.844 58.3017C102.494 58.7659 101.009 57.4662 101.055 57.3733C102.308 58.5802 103.701 60.0192 104.676 60.8548C104.954 60.9476 102.448 58.7195 103.794 59.8336L102.262 58.4874C103.515 59.4158 101.333 57.6518 102.54 58.4874C104.536 60.2977 104.722 60.5763 106.718 62.3402C107.136 62.8044 106.486 62.2938 106.904 62.7116C107.925 63.6864 108.528 64.197 108.993 64.5683C109.225 64.754 109.41 64.8468 109.596 64.9861C109.828 65.1718 109.828 65.1254 109.875 65.1718C109.921 65.1718 109.921 65.2182 109.967 65.2646L109.967 65.2182C109.967 65.2182 110.014 65.1718 110.06 65.1254C110.06 65.1254 110.06 65.1254 110.06 65.0789C110.06 65.0325 110.06 64.9861 110.06 64.9397C110.06 64.8468 110.107 64.754 110.107 64.6612C110.153 64.2434 110.2 63.6864 110.2 62.7116L110.06 63.4079C110.153 60.8084 110.292 61.9224 110.292 59.2301C110.246 59.6943 110.2 61.2726 110.2 60.8548C110.153 59.0908 110.339 59.6015 110.339 58.2553L110.246 57.9768C110.339 55.238 110.478 52.1744 110.524 49.1107C110.478 49.2964 110.432 49.807 110.432 49.0643C110.524 45.2114 110.478 40.8016 110.339 37.0881L110.478 35.7419C110.478 35.417 110.432 35.1384 110.385 35.5098C110.339 34.0708 110.432 35.417 110.478 34.7207C110.478 33.8851 110.385 33.653 110.385 34.1636C110.478 31.6106 110.432 26.8294 110.246 24.137L110.246 24.6477C110.107 22.5588 110.385 22.2803 110.2 20.3307L110.2 20.702C110.107 18.4275 109.967 16.0137 109.875 13.7855C109.782 12.6715 109.735 11.5574 109.689 10.5362C109.643 10.0256 109.596 9.51494 109.55 9.05075C109.55 8.81865 109.503 8.58655 109.503 8.35446L109.503 8.16878C109.503 8.12236 109.503 8.02952 109.503 8.02952L109.503 7.89026C109.55 7.84384 109.55 7.70459 109.55 7.51891L109.225 7.84384C108.946 8.12236 108.668 8.40088 108.389 8.67939C107.832 9.23642 107.368 9.70062 107.229 9.70062C105.465 11.6038 106.022 11.1396 103.422 13.7391C102.726 14.4354 102.262 14.6675 101.38 15.503L101.426 15.5959L100.173 16.6635L99.6159 17.3598L98.7804 18.1025C99.1053 17.7776 99.4303 17.4062 99.3838 17.4527C98.734 18.0561 97.9448 18.7988 97.295 19.4023C96.6915 20.0057 96.2273 20.4699 96.2273 20.5163L93.0244 23.2551C93.1172 23.2551 93.3957 22.9766 93.7207 22.698C92.5602 23.6729 93.7207 22.8837 92.2353 24.0442C92.3745 23.9049 92.0496 24.137 92.0032 24.137C91.2605 24.8798 89.4965 26.3652 88.1504 27.4792L88.4289 27.34C86.0615 29.3824 83.3692 31.5177 80.6304 33.6994C81.6052 32.9103 81.2803 32.9567 80.4912 33.6066L80.2591 33.9315C79.702 34.3029 81.0946 33.2352 79.9341 34.0244C78.9129 34.8599 79.3307 34.6742 79.9341 34.2565L78.6344 35.1849C78.588 35.2777 78.8665 35.0456 79.0057 35.0456C78.4487 35.417 76.9169 36.8095 76.0813 37.2737L76.0349 37.3666C73.2497 39.5019 71.95 40.3838 69.629 42.0549C69.5362 42.0085 68.6078 42.6584 67.8651 43.0762C66.1476 44.3295 64.3372 45.7221 62.2483 47.1611C60.7165 48.0894 61.7841 47.3932 61.0414 47.7645C60.995 47.8574 60.438 48.1823 60.0202 48.4144C59.6024 48.6465 59.2775 48.7857 59.9274 48.5536C59.2311 48.8786 58.6276 49.1107 58.0242 49.2499C57.8849 49.2964 57.7457 49.2964 57.6064 49.3428C57.4671 49.3428 57.3279 49.3892 57.1886 49.3892C56.9101 49.4356 56.6316 49.4356 56.3531 49.4356C56.0746 49.4356 55.796 49.3892 55.4711 49.3428C55.1926 49.2499 54.8677 49.2035 54.5427 49.0643C53.8928 48.8322 53.1501 48.4144 52.4074 47.8109C52.7788 48.043 53.1966 48.2751 53.0109 48.1359C52.4074 47.7645 51.7111 47.2075 51.7576 47.3003L51.8968 47.4396C51.0613 46.6969 50.2721 45.8613 49.4366 45.0258C48.601 44.1902 47.7191 43.3547 46.8371 42.5655C45.1196 40.9409 43.4485 39.409 42.2416 38.2021L42.1952 38.2485L39.6421 35.7883C38.4352 34.7207 40.3384 36.4846 39.41 35.7419C36.6713 33.0496 34.9073 31.7498 32.5864 29.6145C31.5651 28.9182 29.9404 27.5257 28.1765 26.0867C26.4126 24.6477 24.6022 23.1622 23.2096 22.2338L23.3953 22.2803C22.7454 21.7232 22.5598 21.6768 22.0492 21.3055C22.142 21.3055 22.7919 21.8161 22.4205 21.4911C16.7573 17.0349 10.3979 12.7643 4.13127 8.86506C4.08485 8.86506 4.13128 8.86506 4.08486 8.81864C4.03844 8.81864 3.99202 8.67938 3.9456 9.23642C3.89918 9.70061 3.85276 10.3041 3.89918 11.7431L4.03844 10.7683C3.85276 16.1993 3.9456 21.9089 3.80634 27.2471C3.85276 26.9222 3.85276 26.9222 3.85276 26.4116C3.89918 26.9686 3.89918 28.0363 3.85276 28.9182C3.80634 29.8002 3.80634 30.5893 3.75992 30.5893C3.75992 31.4249 3.80634 30.775 3.85276 31.2856C3.89918 32.3997 3.7135 34.1172 3.80634 34.7207C3.80634 34.7671 3.80634 34.6278 3.85276 34.4421C3.80634 35.4169 3.85276 37.5522 3.75992 36.9024C3.80634 38.8984 3.66708 40.7552 3.7135 42.3334C3.62066 43.3547 3.75992 45.7685 3.57424 46.0934C3.7135 45.9542 3.66708 49.6213 3.57424 50.8746C3.62066 50.4568 3.62066 51.9887 3.66708 51.4781C3.66708 52.9171 3.62066 54.2632 3.52782 53.9847C3.7135 56.6306 3.34214 59.3229 3.57424 60.8548L3.57424 61.6439L3.57424 61.7367L3.57424 61.7832L3.57424 61.876L3.57424 61.9224L3.57424 61.9688L3.66707 61.9224L3.75992 61.876C3.75992 61.876 3.75991 61.876 3.80633 61.8296L3.94559 61.7367C4.78114 61.1797 5.57027 60.5298 6.31298 59.88C7.75199 58.5338 9.0053 57.0484 10.1658 55.5165C10.0729 55.5165 9.42308 56.3521 8.77321 57.1412C8.12334 57.9304 7.47347 58.6266 7.47347 58.5338C8.72679 57.2341 9.60876 56.12 10.4907 54.9595C11.3727 53.8454 12.2082 52.6385 13.2759 51.1531C13.8329 50.364 12.9045 51.5245 12.7189 51.803C14.947 48.8786 16.8966 46.0934 18.8926 43.4939C18.8926 43.4939 18.6605 43.7724 18.4284 44.0045C18.7998 43.4939 19.3104 42.7976 19.3104 42.8905L18.9391 43.4011C18.4284 44.2831 20.6102 41.4979 20.7494 41.4051C19.9603 42.1478 22.6062 38.8056 21.3993 40.0125C21.6778 39.6875 22.0027 39.2698 22.0027 39.3626C22.3741 38.852 22.4669 38.6663 22.0492 39.1305C22.7454 38.2021 22.9775 37.9236 23.2096 37.6915C23.3025 37.5522 23.4417 37.413 23.581 37.2273C23.7203 37.0416 23.9988 36.6239 24.6022 36.4846C24.5558 36.4382 24.0916 36.6239 23.8595 36.7631C24.138 36.5774 24.4165 36.4382 24.7879 36.3918C25.1128 36.3453 25.4842 36.3918 25.8091 36.531C26.1341 36.6703 26.459 36.9024 26.6911 37.3201C26.9232 37.6915 26.9232 38.295 26.6447 38.7127C26.6911 38.6663 26.6911 38.7127 26.6911 38.6663C26.6911 38.6663 26.7375 38.6199 26.7839 38.4806C26.7839 38.5271 26.7839 38.5271 26.7375 38.5735C26.6911 38.6663 26.6447 38.7591 26.5518 38.852C26.459 38.9912 26.3197 39.1305 26.2269 39.2698C25.9948 39.5483 25.8091 39.8268 25.577 40.1053C25.1593 40.6623 24.7415 41.173 24.3701 41.6836C23.5346 42.7512 22.7454 43.8189 21.7706 45.165C22.4669 44.4687 21.1208 46.0934 21.1208 46.3255L20.0531 47.7181L20.4245 47.1146C19.4961 48.368 18.6141 49.4356 17.825 50.5497L18.5677 49.6677L16.8038 51.9887L17.7321 50.6425C16.7573 51.8958 17.6857 50.4104 16.4788 52.1279C16.7573 51.803 15.5504 53.3813 15.1327 54.0775C14.6221 54.681 14.1579 55.2844 13.508 56.2593C13.3687 56.5378 13.7865 56.1664 13.6937 56.3057C13.1831 56.8627 11.4655 59.2301 10.7228 59.88C10.9549 59.6479 11.0013 59.6943 10.9549 59.7871L10.4907 60.2049C10.0265 60.7619 9.98011 60.8548 10.073 60.8084C9.33024 61.6439 9.42308 61.4582 9.4695 61.3654C9.51592 61.2261 9.56234 61.1797 8.68037 62.1545C8.81963 62.0153 8.77321 62.1081 9.09815 61.7832L8.40186 62.4795L8.0305 62.8044C7.89124 62.8972 7.84482 62.9436 7.75198 63.0365C7.5663 63.1757 7.42705 63.315 7.24137 63.4543L7.10211 63.5471L7.05569 63.5935L7.14853 63.5935L7.47347 63.5935C7.98408 63.5935 8.49469 63.5935 9.0053 63.5935C9.60876 63.5935 10.2122 63.5935 10.8157 63.5935C11.512 63.4543 8.72679 63.5471 9.51592 63.4543C12.951 63.4543 16.6181 63.5935 19.9603 63.5935L19.3568 63.5935C19.821 63.7792 21.8171 63.5007 23.5346 63.5935C23.1168 63.5935 22.9775 63.5007 23.1168 63.5007C25.3913 63.5007 27.7587 63.5935 31.2402 63.6864L30.8224 63.6399C32.1686 63.5935 34.3503 63.6399 35.7893 63.6399C36.2071 63.6864 37.0426 63.6864 36.532 63.7792C40.9883 63.5471 45.0732 64.0577 49.0188 63.9185C48.5546 63.9185 47.9047 63.872 48.2761 63.872L51.6647 63.9649C51.3862 64.0577 51.2005 64.0113 50.5042 64.0577C50.922 64.1041 51.8968 64.197 52.7324 64.197C51.2005 64.1041 52.7324 64.0577 53.4287 64.0577C53.3358 64.0577 53.5215 64.1041 53.4751 64.1506C55.239 64.0577 53.7536 64.3362 56.1674 64.2898L56.0281 64.2434C56.9101 64.2898 57.7457 64.3827 58.7205 64.3827C59.1382 64.2898 57.7457 64.2898 57.6992 64.2434C59.0454 64.2898 60.3916 64.4755 61.6449 64.4291C61.0414 64.3827 60.2523 64.3362 59.6489 64.3362C60.995 64.2434 61.1343 64.2898 62.1555 64.2898L62.0627 64.2898L64.3836 64.2898L63.7802 64.2898C65.4977 64.5683 67.2616 64.4291 69.5362 64.6612C67.3081 64.4291 69.1648 64.5683 68.9791 64.4291C69.5826 64.4291 70.4646 64.4291 70.2325 64.3827C71.3001 64.5219 72.0428 64.3827 73.5747 64.5683C73.6675 64.5219 74.7352 64.6147 74.5031 64.5219C75.8956 64.6147 74.1781 64.5683 74.271 64.6147C76.4527 64.8004 79.4235 64.6612 82.5336 64.9397C85.1795 65.1254 85.6901 65.2646 88.0575 65.4039C88.1504 65.4039 88.2432 65.4039 88.2896 65.4039C88.9859 65.4039 87.5469 65.2646 87.5469 65.2646C88.8931 65.2646 89.9607 65.3575 91.214 65.4503C90.9355 65.4039 91.214 65.4039 91.6318 65.3575C92.653 65.4039 92.3281 65.4967 93.6743 65.5431C93.4422 65.4967 93.1636 65.4039 92.653 65.3575C93.8599 65.4503 95.0668 65.5431 96.3202 65.6824C96.6451 65.636 95.5775 65.5431 95.1133 65.4967C96.5058 65.5896 98.7804 65.7288 99.1982 65.8681L98.5019 65.8681C98.6876 65.8681 98.4555 65.7752 98.1769 65.7752C96.97 65.636 96.413 65.7288 96.3666 65.7288L97.2486 65.7752C96.3202 65.9145 93.6278 65.5431 91.8175 65.4967L92.4209 65.636C96.97 65.9145 101.426 66.1466 105.836 66.3787ZM40.9883 6.45126C41.2204 6.45126 41.4525 6.45126 41.7774 6.45126C41.8238 6.40484 41.7774 6.40484 41.5917 6.40484C41.6381 6.40484 41.2204 6.45126 40.9883 6.45126ZM42.7522 6.45126C42.9379 6.45126 43.0771 6.45126 43.17 6.45126L42.7522 6.45126ZM103.794 8.77223C103.933 8.63297 104.072 8.49371 104.211 8.35446C104.165 8.35446 104.026 8.44729 103.747 8.67939C103.747 8.72581 103.747 8.77223 103.794 8.77223ZM110.757 46.6969C110.71 46.8825 110.71 46.047 110.71 45.49L110.71 47.0682C110.71 47.2075 110.757 47.0682 110.757 46.6969ZM110.664 49.1571L110.664 50.0391C110.617 49.8534 110.664 49.6213 110.664 49.1571ZM106.207 66.2859C106.207 66.3323 106.254 66.3787 106.254 66.4251C106.3 66.4251 106.3 66.4251 106.347 66.4251C106.3 66.3787 106.254 66.3323 106.207 66.2859ZM90.7963 65.5431C90.5177 65.5431 90.3321 65.5896 90.4713 65.636C91.0748 65.6824 91.6782 65.6824 92.2817 65.7288L90.7963 65.5431ZM81.0946 65.1254L80.584 65.1718C81.0946 65.1718 81.5588 65.2182 82.0694 65.2182C81.9766 65.2182 81.6981 65.1718 81.0946 65.1254ZM45.166 64.1506C45.0732 64.1041 44.7946 64.0577 43.9591 64.0577C43.9127 64.0577 43.8663 64.1041 43.9127 64.1506C44.3305 64.1506 44.7482 64.1506 45.166 64.1506ZM83.6477 3.75894L83.5548 3.75894C83.6013 3.80535 83.6941 3.85177 83.6941 3.89819C83.7405 3.89819 83.8334 3.85177 83.9262 3.85177L84.1583 3.94461L83.6477 3.94461C83.5548 4.03745 83.3227 4.08387 82.7193 4.17671L81.7445 4.13029L81.4195 4.31597L82.2087 4.26955C81.7445 4.36239 81.466 4.31597 81.141 4.31597C81.0482 4.36239 80.9554 4.40881 80.7233 4.45523L79.7949 4.31597C79.702 4.40881 80.2126 4.40881 79.6092 4.50165C79.145 4.45523 80.027 4.31597 79.2843 4.31597C78.8201 4.40881 78.9593 4.45523 78.4023 4.45523C78.3094 4.50165 78.4487 4.50165 78.6808 4.50165C78.2166 4.50165 77.4275 4.59448 77.149 4.50164C76.6848 4.6409 75.5243 4.59448 75.5707 4.78016C75.4314 4.73374 74.7352 4.73374 74.271 4.78016C75.1065 4.91942 72.5999 4.91942 72.832 5.1051C72.2285 4.96584 70.6503 5.19794 69.5826 5.19794C69.629 5.19794 69.7683 5.24435 69.8611 5.19794C69.2577 5.24435 69.1184 5.33719 68.7006 5.38361C68.6078 5.24435 67.6794 5.29077 67.1688 5.24435C66.4261 5.43003 67.633 5.38361 67.4009 5.52287C67.4473 5.43003 66.1012 5.52287 66.3797 5.38361C65.8226 5.52287 65.9155 5.47645 65.637 5.56929C65.5441 5.38361 65.1263 5.56929 64.6622 5.52287C63.873 5.66213 64.4765 5.70855 63.5945 5.70855C63.1767 5.80139 63.9659 5.80139 63.9659 5.80139C63.0839 5.84781 63.5481 5.70855 63.316 5.66213C62.2483 5.70855 62.8054 5.80139 62.4804 5.89423C61.7841 5.89423 61.2735 5.80139 60.7629 5.84781C60.7165 5.89423 60.6237 5.89423 60.7629 5.89423C60.0666 5.84781 58.6276 6.03348 57.7921 5.94064C57.7457 5.94064 57.6992 5.98706 57.6992 5.98706C57.8385 5.89422 57.8385 5.84781 57.8385 5.80139C57.4207 5.80139 57.0958 5.75497 56.9101 5.84781C57.1422 5.84781 57.1886 5.84781 57.2815 5.89422L56.8637 5.89422C56.4923 6.03348 57.4671 5.89422 57.4671 5.98706C56.6316 5.98706 55.6568 5.94064 55.0069 5.98706C54.8677 6.12632 56.4923 5.94064 55.6568 6.0799L56.6316 5.98706C55.8889 6.21916 57.2351 5.94064 56.5388 6.17274C55.239 6.26558 55.0998 6.17274 53.8 6.26558C53.5215 6.21916 53.8929 6.17274 53.6143 6.12632C51.7576 6.0799 52.1753 6.49768 50.8292 6.35842C50.4578 6.312 50.3186 6.12632 49.3902 6.26558L49.7151 6.40484C48.4618 6.45126 48.9724 6.21916 47.6727 6.35842C47.9048 6.40484 48.6475 6.35842 48.4618 6.40484C47.6262 6.5441 47.8583 6.35842 47.2085 6.35842L47.0692 6.49768C45.723 6.49768 44.2376 6.45126 42.7986 6.45126C42.8915 6.49768 43.1236 6.49768 42.7986 6.5441C40.9418 6.5441 38.8066 6.63693 36.9962 6.68335L36.2999 6.59051C36.1606 6.59051 36.0214 6.63693 36.1606 6.63693C35.4644 6.68335 36.1142 6.59051 35.7893 6.54409C35.3715 6.54409 35.2787 6.59051 35.5108 6.63693C34.2575 6.54409 31.9829 6.45126 30.6832 6.54409L30.9153 6.59051C29.894 6.63693 29.7548 6.35842 28.8264 6.45125L29.0121 6.45125C26.8304 6.49767 24.3701 6.35842 22.699 6.45125C22.3741 6.312 20.5173 6.45125 20.3781 6.26558C19.1247 6.312 19.4961 6.35842 17.6857 6.40483C17.2215 6.40483 16.9894 6.26558 16.386 6.21916L16.386 6.312L15.5969 6.17274L15.1791 6.26558L14.6221 6.21916C14.8542 6.21916 15.0862 6.17274 15.0398 6.17274C14.2043 6.0799 12.951 6.17274 12.9045 6.21916L10.8621 6.03348C10.9085 6.0799 11.0942 6.0799 11.3263 6.12632C10.5836 6.03348 11.2799 6.26558 10.3515 6.12632C10.4907 6.12632 10.3051 6.0799 10.2586 6.03348C9.74802 6.0799 8.63396 6.03348 7.79841 5.94064L7.93767 6.03348C7.70557 6.03348 7.47347 6.03348 7.24138 5.98706L7.10212 5.98706L7.0557 5.98706C6.96286 5.98706 6.87002 5.98706 6.8236 5.94064C6.87002 5.98706 6.96286 6.03348 7.0557 6.12632C6.91644 6.0799 6.68434 6.0799 6.91644 6.26558C6.96286 6.26558 7.00928 6.21916 7.0557 6.21916C7.19495 6.35841 7.0557 6.26558 7.00928 6.26558L6.96286 6.26558L6.96286 6.312C7.00928 6.35841 7.0557 6.35841 7.10212 6.45125C7.65915 6.77619 7.51989 6.59051 7.24138 6.35841L7.84482 6.82261C7.89124 6.82261 7.75199 6.68335 7.75199 6.63693C7.98408 6.86903 8.91247 7.2868 9.2374 7.61174L9.28383 7.61174C10.6764 8.54013 11.3263 9.00432 12.4403 9.79345C12.3939 9.88629 12.8581 10.1648 13.1366 10.4897C13.9722 11.0468 14.947 11.6038 15.9218 12.3465C16.5717 12.9035 16.0611 12.5786 16.3396 12.8107C16.4324 12.7643 17.4072 13.507 16.943 13.0892C18.1499 13.9248 18.4749 14.2033 19.9139 15.3638C19.7282 15.2709 19.5425 15.1317 19.6353 15.2709C19.9139 15.503 20.2852 15.6887 20.2388 15.6423L20.3781 15.4566C21.9563 16.8028 24.3701 18.1025 25.577 19.263L25.5306 19.2166L26.8304 20.3307C27.4802 20.7948 26.5054 20.0057 26.9696 20.2842C28.3158 21.5376 29.2906 22.0946 30.4046 23.1158C31.4723 23.6728 33.6076 25.7617 34.9537 26.6901L34.8609 26.6901C35.1394 27.015 35.2787 26.9686 35.5108 27.1543C35.4644 27.1543 35.1394 26.9222 35.3251 27.1079C37.9246 29.4289 40.8026 31.7498 43.4949 34.1636C44.4697 35.0456 43.8198 34.9063 45.1196 35.9276L44.8411 35.5098C45.7695 36.4846 46.6978 37.413 47.6727 38.3414C48.1368 38.8056 48.6475 39.2698 49.1117 39.734C49.5758 40.1982 50.04 40.6623 50.4578 41.173C50.365 41.0337 50.4114 41.0337 50.2257 40.848C50.6899 41.173 51.6183 42.3334 51.5719 42.3799C51.8504 42.6584 51.6647 42.4263 51.8504 42.5655C52.2682 42.9369 52.6859 43.6332 52.9645 43.7724C52.9645 43.7724 52.9645 43.7724 52.918 43.726C53.243 44.051 53.9393 44.6544 53.6608 44.5152C54.4035 45.0722 55.0533 45.5828 55.7496 45.6756C55.9353 45.7685 56.3067 45.8149 56.678 45.7685C57.0029 45.7221 57.2815 45.6292 57.3743 45.6756C57.3279 45.6292 57.6992 45.49 58.117 45.2579C58.5348 45.0722 59.0454 44.7937 59.3239 44.6544C59.1382 44.7008 59.7417 44.3295 59.5096 44.4223C60.0666 44.051 60.6237 43.726 60.5772 43.8653C61.5056 42.9833 62.8054 42.5191 63.2231 41.9157C64.9871 40.8016 66.5653 39.7804 68.0972 38.7127C67.9579 38.6199 66.4261 39.9196 66.3797 39.734C67.8651 38.7592 68.7471 38.2485 70.1396 37.1809C70.511 36.9024 69.9075 37.2737 69.7683 37.3666C71.2073 36.3918 72.507 35.3241 73.8068 34.4421C73.8068 34.4421 73.6675 34.535 73.5283 34.6278C73.7603 34.4421 74.0853 34.1636 74.0853 34.2565L73.8532 34.4421C73.5282 34.8135 74.9672 33.8851 75.0601 33.8851C74.5031 34.0244 76.267 32.9103 75.4314 33.1888C75.6171 33.096 75.8028 32.9567 75.8028 33.0031C76.0349 32.8175 76.0813 32.7246 75.8028 32.8639C76.6848 32.214 76.4527 32.539 77.2418 31.8891C77.1954 31.8427 77.0561 31.9819 76.9633 32.0283C77.4275 31.7498 77.8453 31.5177 78.4951 30.9607C78.4487 30.9607 78.4951 30.9143 78.3094 31.0535C79.4699 30.1716 80.3519 29.661 81.5588 28.5933C81.0946 28.779 81.9302 28.222 81.9302 28.0363L82.6264 27.5721L82.3944 27.8506C82.9978 27.3864 83.5548 27.015 84.019 26.5509L83.5548 26.8758L84.6689 25.9938L84.0654 26.5509C84.7153 26.1331 84.1119 26.7365 84.8546 26.0402C84.6689 26.1795 85.4116 25.576 85.6901 25.2511C86.0151 25.0654 86.34 24.8333 86.7114 24.462C86.8042 24.3227 86.5257 24.4156 86.5721 24.3227C86.9435 24.1835 87.9183 23.2087 88.3825 22.9766C88.2432 23.0694 88.1968 23.023 88.2432 22.9766L88.5217 22.8373C88.7538 22.6052 88.8002 22.5588 88.7074 22.5588C89.4965 21.8625 88.5681 22.8837 89.4501 22.0482C89.3573 22.0946 89.4037 22.0482 89.218 22.1874C90.1464 21.3519 91.0748 20.6556 91.9103 19.82C92.096 19.4951 91.1212 20.4699 91.3533 20.145C92.6066 19.0773 93.9992 17.9633 95.1597 16.8492L94.9276 17.0813C95.2061 17.0813 95.7631 16.1993 96.413 15.7351C96.2738 15.8744 96.1345 15.828 96.2273 15.828C97.0165 15.0388 97.8984 14.3426 99.1518 13.2285L98.9661 13.3213C99.3838 12.8571 100.173 12.1144 100.684 11.6038C100.869 11.511 101.148 11.186 101.009 11.4181C102.355 9.70062 104.072 8.63297 105.233 7.10113C105.093 7.24039 104.815 7.47249 104.954 7.33323L106.115 6.21916C106.068 6.35842 106.022 6.40484 105.79 6.68336C105.975 6.59052 106.3 6.26558 106.625 5.98707C106.068 6.45126 106.532 5.89423 106.718 5.61571C106.718 5.66213 106.811 5.61571 106.811 5.66213C106.95 5.47645 106.997 5.43004 107.043 5.38362C107.089 5.3372 107.136 5.3372 107.182 5.3372C107.229 5.3372 107.275 5.29078 107.368 5.24436C107.414 5.19794 107.461 5.15152 107.507 5.1051C107.554 5.05868 107.554 5.05868 107.6 5.01226L107.693 4.91942C107.693 4.91942 107.693 4.91942 107.693 4.873L107.646 4.873C107.646 4.873 107.646 4.873 107.6 4.91942C107.322 4.82658 106.997 4.73374 106.486 4.64091C106.3 4.68733 106.95 4.78016 106.904 4.82658C106.857 4.82658 106.811 4.78016 106.718 4.78016L106.486 4.73374C106.347 4.68732 106.161 4.64091 106.022 4.59449C105.697 4.50165 105.418 4.45523 105.093 4.45523C105.372 4.54807 105.743 4.59449 106.022 4.68733C105.372 4.68733 105.279 4.64091 104.815 4.59449L104.722 4.59449L104.165 4.54807C104.258 4.54807 104.351 4.54807 104.444 4.54807L103.701 4.45523L103.979 4.45523C103.19 4.08387 102.308 4.17671 101.241 3.89819C102.308 4.13029 101.426 3.99103 101.473 4.13029C101.194 4.13029 100.776 4.13029 100.869 4.17671C100.359 4.03745 99.9873 4.17671 99.2446 3.99103C99.1982 4.03745 98.6876 3.94461 98.7804 4.03745C98.0841 3.94461 98.9661 3.99103 98.8732 3.94461C97.852 3.75894 96.413 3.94461 94.8812 3.75894C93.6743 3.6661 93.3493 3.57326 92.3745 3.52684L92.0496 3.52684C92.096 3.34116 92.6995 3.38758 92.6995 3.38758C92.0496 3.434 91.539 3.434 90.9355 3.434C91.0748 3.48042 90.9355 3.48042 90.7498 3.52684C90.2392 3.52684 90.4249 3.434 89.775 3.48042C89.8679 3.52684 90.0536 3.57326 90.2857 3.61968C89.6822 3.61968 89.1252 3.57326 88.5217 3.57326C88.3825 3.61968 88.8931 3.6661 89.1252 3.6661C88.4289 3.6661 87.3612 3.71252 87.1291 3.61968L87.4541 3.57326C87.3612 3.61968 87.5005 3.6661 87.6397 3.6661C88.1968 3.71252 88.4289 3.57326 88.4753 3.57326L88.0575 3.57326C88.4753 3.34116 89.8215 3.52684 90.657 3.48042L90.3785 3.38758C88.0575 3.434 85.8294 3.57326 83.6477 3.75894ZM91.1212 3.434C91.214 3.38758 91.3069 3.38758 91.3069 3.34116C91.0284 3.34116 90.7498 3.34116 90.4249 3.38758L91.1212 3.434ZM95.856 3.38758L96.0881 3.34116L95.3918 3.34116C95.4382 3.34116 95.531 3.34116 95.856 3.38758ZM0.510565 22.2803L0.603403 22.6516C0.603403 22.2803 0.603403 21.9553 0.603403 21.584C0.556983 21.6304 0.556985 21.8161 0.510565 22.2803ZM0.556981 15.1781C0.556981 15.3638 0.603399 15.503 0.649818 15.4102C0.649818 14.9924 0.649818 14.5282 0.649818 14.1105L0.556981 15.1781ZM61.5985 2.36635C61.32 2.36635 61.0879 2.41277 60.9486 2.41277C61.0879 2.41277 61.2735 2.41277 61.5985 2.36635ZM63.1303 2.31993C63.0375 2.36635 63.1303 2.36635 63.4088 2.36635C63.2696 2.36635 63.873 2.27351 64.2908 2.22709C63.9659 2.22709 63.5481 2.27351 63.1303 2.31993Z" fill="#A6E1F5"></path>
<path d="M108.714 1.5308C108.667 1.5308 108.575 1.48438 108.528 1.48438C108.575 1.48438 108.667 1.48438 108.714 1.5308Z" fill="#A6E1F5"></path>
<path d="M101.287 0.36915L101.287 0.41557L101.055 0.36915L101.287 0.36915Z" fill="#A6E1F5"></path>
<path d="M0.231934 42.4728C0.231934 42.4264 0.231931 42.38 0.185511 42.2871C0.231931 42.2871 0.231934 42.3335 0.231934 42.4728Z" fill="#A6E1F5"></path>
<path d="M0.27832 36.0675C0.27832 35.8354 0.278317 35.5569 0.231898 35.1856L0.27832 36.0675Z" fill="#A6E1F5"></path>
<path d="M0.278761 31.1925C0.278761 31.1465 0.324707 31.1006 0.324707 31.1006L0.278761 31.1925Z" fill="#A6E1F5"></path>
<path d="M43.3554 67.2608C43.4019 67.2608 43.4947 67.2608 43.5411 67.2608C44.0053 67.3072 43.6804 67.3072 43.3554 67.2608Z" fill="#A6E1F5"></path>
<path d="M20.1919 66.7969C20.424 66.7969 20.7025 66.8433 20.9346 66.8433C20.5168 66.8433 20.1919 66.8433 20.1919 66.7969Z" fill="#A6E1F5"></path>
<path d="M0.417445 9.37638C0.417445 9.1907 0.417448 8.9586 0.463867 8.81935L0.417445 9.37638Z" fill="#A6E1F5"></path>
<path d="M0.324652 16.4767C0.324652 16.4307 0.324655 16.4307 0.370605 16.3848L0.324652 16.4767Z" fill="#A6E1F5"></path>
<path d="M0.370605 18.3807C0.370605 17.9165 0.324183 17.2203 0.324183 16.524L0.370606 16.4775C0.277767 16.8025 0.417025 17.963 0.370605 18.3807Z" fill="#A6E1F5"></path>
<path d="M9.42289 66.9356L9.09795 66.8428L10.0728 66.8892L9.42289 66.9356Z" fill="#A6E1F5"></path>
</g>
<defs>
<clipPath id="clip0_766_45832">
<rect width="114.192" height="70.0933" fill="white" transform="matrix(-1 -8.42778e-08 -8.42778e-08 1 114.192 9.62382e-06)"></rect>
</clipPath>
</defs>
</svg>